<?xml version="1.0" encoding="utf-8"?>
<!-- Generator: Adobe Illustrator 19.1.0, SVG Export Plug-In . SVG Version: 6.00 Build 0)  -->
<svg version="1.1" xmlns="http://www.w3.org/2000/svg" xmlns:xlink="http://www.w3.org/1999/xlink" x="0px" y="0px"
	 viewBox="0 143.7 841.9 308.6" style="enable-background:new 0 143.7 841.9 308.6;" xml:space="preserve">
<style type="text/css">
	.st0{fill:none;stroke:#FFFFFF;stroke-width:1.25;stroke-miterlimit:10;}
	.st1{opacity:0.67;}
	.st2{fill:#FFB000;}
	.st3{fill:none;stroke:#E1AA25;stroke-miterlimit:10;}
	.st4{fill:#FFFFFF;}
	.st5{fill:none;stroke:#000000;stroke-width:0.75;stroke-miterlimit:10;}
	.st6{fill:none;}
	.st7{fill:none;stroke:#FFFFFF;stroke-miterlimit:10;}
	.st8{font-family:'ITCAvantGardeStd-XLt';}
	.st9{font-size:37.8449px;}
</style>
<g id="Layer_1">
	<g id="Layer_2">
	</g>
</g>
<g id="Layer_2_1_">
	<g id="Layer_1_1_">
		<path class="st0" d="M55.5,316.9L42,289c0,0,335.2-244.2,759.3-7.1c-7.2,10.3-16.8,25.6-16.8,25.6S859,405,740,396.1
			c-4.8,12.8-15.6,30.8-15.6,30.8S424.7,232,124.9,434.5l-18-29.5C106.9,405-6.7,423.6,55.5,316.9z"/>
		<g class="st1">
			<path class="st2" d="M167,308l-10.7-1.9l-0.2-1.9l10.8,2C166.9,306.8,167,307.4,167,308z M166.9,304.2l-10.8-1.9
				c0-0.6,0-1.2,0.2-1.8l10.6,1.9C166.9,303,166.9,303.6,166.9,304.2z M157.1,296.9l10.7,1.9c-0.2,0.6-0.4,1.2-0.5,1.8l-10.7-1.9
				L157.1,296.9z M168,311.9l-10.6-1.9c-0.3-0.6-0.5-1.4-0.6-2l10.7,1.9C167.6,310.6,167.8,311.3,168,311.9z M168.7,297l-10.8-1.9
				c0.3-0.6,0.7-1.2,1-1.7l10.7,1.8C169.1,295.9,169,296.6,168.7,297z M159.1,314c-0.4-0.6-0.7-1.3-1-2l10.7,1.8l1,2.1L159.1,314z
				 M170.6,293.7l-10.7-1.9l1.4-1.6l10.7,1.9C171.5,292.7,171,293.1,170.6,293.7z M160.4,316.2L171,318c0.5,0.8,1,1.5,1.5,2.1
				l-10.4-1.9C161.4,317.6,160.8,316.9,160.4,316.2z M173.7,290.5l-10.6-1.9c0.6-0.6,1.2-1.1,1.9-1.5l10.7,1.8
				C175,289.5,174.4,290,173.7,290.5z M164.5,320.6l10.2,1.8c1,0.9,2,1.6,3.1,2.2h-1.2l-7.4-1.3
				C167.6,322.7,165.9,321.8,164.5,320.6z M178.3,287.6l-10.5-1.9c1-0.5,2-0.9,3.2-1.3l10.4,1.9L178.3,287.6z M184.9,285.1
				l-10.1-1.8c1.9-0.4,3.9-0.6,5.9-0.8l8.8,1.6C187.9,284.3,186.3,284.7,184.9,285.1z M175.5,339.2c2,0.1,4.1-0.1,6.3-0.5l10.1,1.8
				c-3.8,0.6-7.2,0.6-10.5-0.1L175.5,339.2z M184.8,313.1l4.8,0.8l1,2.1l-8.7-1.5L184.8,313.1z M183.5,271.7l10.7,1.9l0.1,1.9
				l-10.7-1.9L183.5,271.7z M183.7,275.5l10.7,1.9l0.1,2l-10.7-2L183.7,275.5z M184,279.3l10.7,1.9l0.1,1.9l-10.7-1.9L184,279.3z
				 M196.5,339.5l-10.4-1.9c1.2-0.3,2.2-0.7,3.5-1.3l10.5,1.9L196.5,339.5z M188.7,311.9l-0.9-0.2l0.7-0.3L188.7,311.9z
				 M203.1,336.9l-10.5-1.9c0.8-0.4,1.8-0.8,2.7-1.4l10.5,1.9L203.1,336.9z M208.4,334.1l-10.6-1.9c0.8-0.4,1.6-0.9,2.4-1.5
				l10.6,1.9L208.4,334.1z M208.8,296.1l0.3,0.8l-10.7-1.9l-0.3-0.8L208.8,296.1z M199.4,297l10.7,1.9l0.9,2l-10.7-1.9L199.4,297z
				 M201.3,301.1l10.7,1.8l1,2.1l-10.7-1.9L201.3,301.1z M212.9,331.2l-10.6-1.8l2-1.6l10.6,2C214.3,330.2,213.6,330.7,212.9,331.2z
				 M203.2,305.2l10.7,1.8l1,2.1l-10.7-1.9L203.2,305.2z M205.1,309.2l10.7,1.9l0.9,2l-10.7-1.8L205.1,309.2z M216.8,328.1
				l-10.6-1.9l1.7-1.6l10.7,2L216.8,328.1z M206.9,313.3l10.7,1.9l0.9,2l-10.7-1.8L206.9,313.3z M208.8,317.3l10.7,1.9l1,2.1
				l-10.8-2L208.8,317.3z M220.1,325l-10.7-1.9l1.4-1.6l-0.2-0.3l10.8,2.1l0.1,0.3L220.1,325z"/>
			<path class="st2" d="M235.6,316l10.2,3.4l-3,0.9l-10.2-3.4L235.6,316z M241.8,314.2l10.2,3.4l-3.1,0.9l-10.2-3.4L241.8,314.2z
				 M245.6,311.6l10.4,3.5l-0.1,1.4l-0.7,0.2l-10.3-3.4l0.6-0.2L245.6,311.6z M245.9,307.8l10.4,3.5l-0.1,2l-10.4-3.6L245.9,307.8z
				 M246.2,304.1l10.4,3.5l-0.2,1.9L246,306L246.2,304.1z M250.7,301.6l10.2,3.4l-3.1,0.9l-10.2-3.4L250.7,301.6z M247.8,285.1
				l4.6,1.6l-3.1,0.9l-1.6-0.7L247.8,285.1z M255.5,285.9l-7.5-2.6l0.1-1.9l10.3,3.3v0.2L255.5,285.9z M248.4,277.7l10.3,3.4
				l-0.2,1.9l-10.3-3.5L248.4,277.7z M248.7,273.9l7.8,2.6l2,2.7l-9.9-3.4L248.7,273.9z M252.6,271.3l1.9,2.5l-5.6-1.8l0.1-1.9
				L252.6,271.3z M249.3,267l1.3,1.7l-1.4-0.5L249.3,267z M260.5,248l0.8,1l-10.2-3.5l-0.8-0.9L260.5,248z M253.2,248.2l10.2,3.4
				l2.1,2.7l-10.2-3.5L253.2,248.2z M256.7,299.9l10.2,3.4l-3,0.9l-10.3-3.4L256.7,299.9z M257.4,253.5l10.2,3.5l2.1,2.6l-10.2-3.5
				L257.4,253.5z M262.9,298.1l10.2,3.4l-3,0.9l-10.3-3.4L262.9,298.1z M261.6,258.8l10.1,3.4l2.1,2.7l-10.2-3.5L261.6,258.8z
				 M265.8,264.2l10.2,3.4l2.1,2.7l-10.2-3.5L265.8,264.2z M269.1,296.2l3.5,1.2l2,2.7l-8.6-2.9L269.1,296.2z M270,269.4l10.1,3.5
				l2.1,2.7l-10.2-3.5L270,269.4z M274.2,274.7l10.2,3.4l2.1,2.6l-10.2-3.4L274.2,274.7z M278.3,280l10.2,3.5l2.1,2.6l-10.2-3.4
				L278.3,280z M284.8,301.6l10.1,3.5l-3,0.9l-10.1-3.5L284.8,301.6z M282.6,285.3l10.1,3.5l2.1,2.6l-10.2-3.4L282.6,285.3z
				 M286.7,290.5l10.1,3.5l2.2,2.6l-10.2-3.4L286.7,290.5z M291,299.8l10.2,3.4l-3.2,0.9l-10.1-3.5L291,299.8z M291,295.9l10.1,3.5
				l2.1,2.7l-10.1-3.5L291,295.9z"/>
			<path class="st2" d="M320.5,294.6l9.5,4.8l-3.1,0.5l-9.6-4.8L320.5,294.6z M330.4,235.9l-9.7-4.9l-0.3-1.9l9.7,4.9L330.4,235.9z
				 M321,233.3l9.7,4.9l0.3,2.2l-9.7-4.8L321,233.3z M321.7,237.7l9.7,4.9l0.3,2.2L322,240L321.7,237.7z M322.4,242.2l9.7,4.9
				l0.3,2.2l-9.7-4.9L322.4,242.2z M323,246.6l9.7,4.8l0.3,2.3l-9.7-4.9L323,246.6z M326.8,293.6l9.6,4.8l-3.1,0.5l-9.6-4.8
				L326.8,293.6z M323.7,251.1l9.7,4.8l0.3,2.3l-9.7-4.9L323.7,251.1z M324.4,255.4l9.7,4.9l0.3,2.3l-9.7-4.9L324.4,255.4z
				 M325,259.9l9.7,4.9l0.3,2.2l-9.7-4.8L325,259.9z M325.7,264.3l9.7,4.9l0.3,2.2l-9.7-4.9L325.7,264.3z M326.4,268.8l9.7,4.9
				l0.3,2.2l-9.7-4.9L326.4,268.8z M333.6,278.5l-6.2-3.1l-0.3-2.2l9.7,4.8L333.6,278.5z M327.7,277.6l2.6,1.4l-2.4,0.4L327.7,277.6
				z M333.1,292.7l9.6,4.8l-3.2,0.5l-9.6-4.8L333.1,292.7z M339.5,291.7l9.5,4.8l-3,0.5l-9.6-4.8L339.5,291.7z M345.9,290.8l9.6,4.8
				l-3.2,0.5l-9.6-4.8L345.9,290.8z M352.2,289.8l9.5,4.8l-3.2,0.5l-9.5-4.8L352.2,289.8z M353.9,278.3l9.7,4.9l0.3,2.3l-9.7-4.9
				L353.9,278.3z M354.6,282.8l9.7,4.9l0.3,2.3l-9.8-4.9L354.6,282.8z M365,294.1l-9.6-4.8h0.2l-0.3-2.1l9.7,4.9l0.3,2H365z"/>
			<path class="st2" d="M386.1,287.3l8.9,5.9l-3.1,0.1l-9-5.9L386.1,287.3z M392.4,287.1l9,5.9l-3.1,0.1l-9-5.9L392.4,287.1z
				 M402.9,230.2l-9.1-6l-0.1-1.9l9.1,6L402.9,230.2z M393.9,226.5l9.1,6l0.1,2.2l-9.1-5.9L393.9,226.5z M394,231l9.1,6l0.1,2.2
				l-9.1-5.9L394,231z M394.2,235.5l9.1,6l0.1,2.2l-9.1-6L394.2,235.5z M394.3,240l9.1,5.9l0.1,2.3l-9.1-6L394.3,240z M394.4,244.5
				l9.1,5.9l0.1,2.3l-9.1-6L394.4,244.5z M394.6,248.9l9.1,6l0.1,2.3l-9.1-6L394.6,248.9z M394.7,253.4l9.1,6l0.1,2.2l-9.1-5.9
				L394.7,253.4z M394.8,257.9l9.1,6l0.1,2.2l-9.1-6L394.8,257.9z M395,262.4l9.1,6l0.1,2.2l-9.1-6L395,262.4z M401,272.9l-5.8-3.8
				l-0.1-2.2l9.1,5.9L401,272.9z M395.2,271.3l2.4,1.7l-2.4,0.1V271.3z M398.8,286.9l9,5.9l-3.2,0.1l-9-5.9L398.8,286.9z
				 M405.3,286.7l8.9,5.9l-3.1,0.1l-9-5.9L405.3,286.7z M411.7,286.5l9,5.9l-3.2,0.1l-9-5.9L411.7,286.5z M418.1,286.3l8.9,5.9
				l-3.2,0.1l-8.9-5.9L418.1,286.3z M421.2,275.1l9.1,6l0.1,2.3l-9.1-6L421.2,275.1z M421.3,279.6l9.1,6l0.1,2.3l-9.1-6.1
				L421.3,279.6z M430.3,292.1l-9-5.9h0.2l-0.1-2.1l9.1,6l0.1,2H430.3z"/>
			<path class="st2" d="M452.1,287.7l8.2,6.9l-3.1-0.3l-8.3-6.9L452.1,287.7z M458.4,288.2l8.3,6.9l-3.1-0.3l-8.3-6.9L458.4,288.2z
				 M464.8,288.8l8.3,6.9l-3.2-0.3l-8.3-6.9L464.8,288.8z M463.1,272.9l2.2,1.9l-2.4-0.2L463.1,272.9z M468.6,275.1l-5.3-4.4
				l0.2-2.2l8.3,6.9L468.6,275.1z M472.2,271l-0.2,2.2l-8.3-7l0.2-2.2L472.2,271z M465.4,246.1l5.4,4.4l-3.3-0.3l-2.3-2L465.4,246.1
				z M473.9,250.9l-8.3-7l0.2-2.2l8.3,6.9L473.9,250.9z M466.2,237.2l8.3,7l-0.2,2.2l-8.3-7L466.2,237.2z M470.2,264.6l8.3,6.9
				l-3.3-0.3l-8.3-6.9L470.2,264.6z M470.4,236l8.3,6.9l-3.2-0.3l-8.3-6.9L470.4,236z M471.1,289.4l8.3,6.9l-3.1-0.3l-8.3-6.9
				L471.1,289.4z M476.6,265.1l8.3,6.9l-3.2-0.3l-8.3-6.9L476.6,265.1z M476.8,236.5l8.3,6.9l-3.3-0.3l-8.2-6.9L476.8,236.5z
				 M477.6,289.9l8.2,6.9l-3.1-0.3l-8.3-6.9L477.6,289.9z M483,265.7l8.3,6.9l-3.1-0.3l-8.3-6.9L483,265.7z M483.2,237.1l8.3,6.9
				l-3.2-0.3l-8.3-6.9L483.2,237.1z M484,290.5l8.2,6.9l-3.2-0.3l-8.3-6.9L484,290.5z M486,263.3l8.3,7l-0.2,2.2l-8.3-7L486,263.3z
				 M486.4,258.9l8.3,7.1l-0.2,2.2l-8.3-7L486.4,258.9z M489.5,237.6l8.3,6.9l-3.2-0.3l-8.3-6.9L489.5,237.6z M486.8,254.4l8.3,7
				l-0.2,2.3l-8.3-7L486.8,254.4z M495.4,297.6l-8.2-6.9l1.5,0.1l0.1-1.2l8.3,7l-0.1,1.1L495.4,297.6z M489.2,285.2l8.3,7l-0.2,2.2
				l-8.3-7L489.2,285.2z M489.6,280.8l8.3,6.9l-0.2,2.3l-8.3-7L489.6,280.8z M492.7,235.2l8.3,7.1l-0.2,2.3l-8.3-7.1L492.7,235.2z
				 M493.1,230.8l8.3,7l-0.2,2.3l-8.3-7.1L493.1,230.8z M493.5,226.3l8.3,7l-0.2,2.3l-8.3-7.1L493.5,226.3z"/>
			<path class="st2" d="M518,295.4l3.2,0.6l7.3,7.8l-3.1-0.6L518,295.4z M527.5,297.3l7.3,7.8l-3.1-0.6l-7.4-7.8L527.5,297.3z
				 M531.1,295.8l7.5,7.9l-0.4,2.1l-0.3-0.1l-7.2-7.7L531.1,295.8z M532,291.4l7.5,7.9l-0.4,2.2l-7.5-7.8L532,291.4z M532.9,287
				l7.5,7.9l-0.4,2.2l-7.5-7.8L532.9,287z M541.1,291.5l-0.2,1.2l-7.5-7.9l0.4-2.2l4.7,4.9L541.1,291.5z M537.4,265l1.4,1.4
				l-1.6-0.3L537.4,265z M541.9,267l-4-4.3l0.4-2.2l6.6,7.1L541.9,267z M539.2,256.3l7.5,7.8l-0.5,2.3l-7.5-8L539.2,256.3z
				 M540.1,251.8l7.5,7.8l-0.5,2.3l-7.5-7.9L540.1,251.8z M541,247.4l7.5,7.9l-0.4,2.2l-7.5-7.9L541,247.4z M545.4,246.5l7.3,7.8
				l-3.2-0.6l-7.3-7.8L545.4,246.5z M556.3,255.1l-0.5-0.1l-7.3-7.8h0.2c1.3,0.3,2.3,0.7,3.4,1.2l4.6,4.7c0.3,0.8,0.5,1.6,0.6,2.2
				C557,255.2,556.6,255.1,556.3,255.1z M550.1,301.9l2.5,0.5l7.4,7.8l-2.5-0.5L550.1,301.9z M552.5,280.8l7.5,7.8l-1.6,0.2l2.1,3.1
				l-6.8-7.2l-2.5-3.7L552.5,280.8z M556.7,280l7.3,7.8c-0.7,0.2-1.4,0.4-2.1,0.5l-7.3-7.8C555.3,280.4,556,280.2,556.7,280z
				 M558.8,303.7l7.5,7.8l-3.2-0.6l-7.5-7.8L558.8,303.7z M560.4,278.5l7.4,7.9c-0.6,0.3-1.3,0.5-1.8,0.8l-7.4-7.8
				C559.2,279.1,559.7,278.9,560.4,278.5z M572.4,310.1l-6.5-6.9l-6.2-9.2l6.7,7.1L572.4,310.1z M565.1,305l7.4,7.8l-3.2-0.6
				l-7.4-7.8L565.1,305z M563.6,276.7l7.4,7.9c-0.5,0.4-1.2,0.7-1.7,1l-7.4-7.9C562.6,277.4,563.1,277.1,563.6,276.7z M566.5,274.4
				l7.4,7.9c-0.5,0.5-0.8,0.8-1.4,1.2l-7.5-7.9C565.5,275.3,566,274.9,566.5,274.4z M569,271.6l7.5,7.9c-0.5,0.6-0.9,1-1.2,1.4
				l-7.5-7.9C568.1,272.7,568.6,272.1,569,271.6z M571,268.3l7.5,7.9c-0.3,0.7-0.6,1.2-1,1.7L570,270
				C570.4,269.4,570.7,268.9,571,268.3z M575.1,252.1c2.3,2.4,3.7,4.5,4.7,6.9l-7.1-7.6c-0.3-1.1-0.9-2.2-1.4-3.3L575.1,252.1z
				 M572.4,264.5l7.5,8c-0.2,0.7-0.4,1.4-0.7,1.9l-7.4-8C572,265.9,572.3,265.1,572.4,264.5z M573.3,260.1l7.5,7.9
				c-0.1,0.7-0.2,1.6-0.3,2.4l-7.5-8C573.1,261.6,573.2,260.9,573.3,260.1z M573.4,254.8l7.4,7.8c0.1,1,0.2,1.8,0.2,2.8l-7.4-7.8
				C573.5,256.7,573.5,255.8,573.4,254.8z"/>
			<path class="st2" d="M596.2,314.2l6.6,8.4l-3-0.9l-6.6-8.5L596.2,314.2z M602.3,316.1l6.6,8.5l-3.1-0.9l-6.6-8.5L602.3,316.1z
				 M611.9,325.5l-6.5-8.4l0.6-2.1l6.7,8.6l-0.6,2L611.9,325.5z M607.4,310.6l6.7,8.6l-0.6,2.1l-6.7-8.6L607.4,310.6z M608.7,306.3
				l6.7,8.6l-0.6,2.1l-6.7-8.5L608.7,306.3z M610,302l6.7,8.6l-0.6,2.1l-6.7-8.5L610,302z M611.3,297.8l6.7,8.5l-0.7,2.2l-6.7-8.6
				L611.3,297.8z M612.6,293.5l6.7,8.5l-0.7,2.2l-6.7-8.6L612.6,293.5z M613.9,289.2l6.7,8.6l-0.6,2.1l-6.7-8.6L613.9,289.2z
				 M615.2,284.9l6.7,8.6l-0.6,2.1l-6.7-8.6L615.2,284.9z M616.5,280.6l6.7,8.6l-0.6,2.1l-6.7-8.5L616.5,280.6z M617.8,276.2
				l6.7,8.6l-0.7,2.2l-6.7-8.6L617.8,276.2z M619.1,272l6.7,8.5l-0.7,2.2l-6.7-8.6L619.1,272z M620.4,267.7l6.7,8.5l-0.7,2.2
				l-6.7-8.6L620.4,267.7z M621.8,263.4l6.7,8.6l-0.6,2.1l-6.7-8.6L621.8,263.4z M623.1,259.1l6.7,8.6l-0.6,2.1l-6.7-8.5
				L623.1,259.1z M631,263.7l-0.5,1.8l-6.7-8.5l0.6-1.8L631,263.7z"/>
			<path class="st2" d="M632.6,325.8l5.8,9.1l-2.9-1.2l-5.8-9.1L632.6,325.8z M638.5,328.2l5.8,9.1l-3-1.2l-5.8-9.1L638.5,328.2z
				 M643.1,328.7l5.9,9.2l-1,1l-0.7-0.3l-5.9-9.1l0.6,0.2L643.1,328.7z M645.7,325.8l5.9,9.2l-1.3,1.4l-5.9-9.3L645.7,325.8z
				 M648.3,323.1l5.9,9.2l-1.3,1.4l-5.9-9.2L648.3,323.1z M653.3,324l5.8,9.1l-3-1.2l-5.8-9.1L653.3,324z M659.1,326.4l5.8,9.1
				l-2.9-1.2l-5.9-9.1L659.1,326.4z M661.4,309.4l2.6,4.1l-3-1.2l-0.9-1.5L661.4,309.4z M665.1,328.9l5.8,9.1l-2.9-1.2l-5.9-9.1
				L665.1,328.9z M667,314.7l-4.2-6.7l1.3-1.4l6,9.1l-0.2,0.2L667,314.7z M666.5,303.9l5.9,9.1l-1.3,1.4l-5.8-9.2L666.5,303.9z
				 M669.2,301.1l4.4,6.9l-0.1,3.3l-5.6-8.9L669.2,301.1z M671,331.3l2,3.1l-0.1,3.3L668,330L671,331.3z M673.8,301.5l-0.1,3.1
				l-3.2-4.9l1.3-1.4L673.8,301.5z M673.9,296.1v2.2l-0.8-1.3L673.9,296.1z M680,345.4l5.7,9l-2.9-1.2l-5.7-9L680,345.4z
				 M685.9,347.8l5.8,9.1l-3.1-1.3l-5.7-9L685.9,347.8z M688.3,344.7l5.7,9v3.4l-5.7-9V344.7z M688.4,337.9l5.7,9.1v3.4l-5.8-9
				L688.4,337.9z M688.4,331.2l5.7,9v3.4l-5.8-9L688.4,331.2z M688.4,324.4l5.8,9.1v3.4l-5.8-9V324.4z M688.5,317.7l5.8,9v3.4
				l-5.8-9V317.7z M688.6,310.9l5.7,9v3.5l-5.7-9.1V310.9z M688.6,304.3l5.8,9.1v3.4l-5.8-9.1V304.3z M688.6,297.5l5.8,9v3.5
				l-5.8-9.1V297.5z M688.7,290.7l5.8,9.1v3.4l-5.8-9.1V290.7z M688.7,283.9l5.8,9.1v3.4l-5.8-9.1V283.9z M694.5,288.3v1.2l-5.8-9.1
				v-1.2L694.5,288.3z"/>
		</g>
		<path class="st3" d="M64.8,319.4l-13.2-27.7c0,0,323.9-230.5,738.3-6.6c-7,9.5-12.8,23.8-12.8,23.8s73.6,93.2-39.8,79.5
			c-4.7,11.8-15.3,28.3-15.3,28.3s-293.3-187.2-594.8,7.1l-17.6-27.1C109.6,396.7,1.2,412.5,64.8,319.4z"/>
		<g>
			<g id="XMLID_1_">
				<g>
					<path d="M689.4,279.2l-0.5,69.4l-12.8-5.3l0.3-10.3l-25.7-10.6l-7,7.4l-12.7-5.3l48.6-49.6L689.4,279.2z M687.5,346.5l0.5-66.4
						l-8.2-3.4l-46.5,47.4l10,4.1l7-7.4l27.4,11.3l-0.3,10.2L687.5,346.5z"/>
					<path class="st4" d="M688,280.1l-0.5,66.4l-10-4.1l0.3-10.2l-27.4-11.3l-7,7.4l-10-4.1l46.5-47.4L688,280.1z M678,323.3
						l0.7-32.3l-22.3,23.4L678,323.3z"/>
					<path d="M678.7,291l-0.7,32.3l-21.6-8.9L678.7,291z M676.6,321.3l0.6-26.8l-18.5,19.4L676.6,321.3z"/>
					<path d="M625.1,255.6l-18.8,61.5l-12.7-3.9l18.8-61.5L625.1,255.6z M605.4,315.4l18-58.9l-10-3.1l-18,58.9L605.4,315.4z"/>
					<polygon class="st4" points="623.3,256.5 605.4,315.4 595.3,312.3 613.3,253.5 					"/>
					<path d="M553.1,236.9c15.5,3.2,22.8,14.8,20.3,27.2c-2.3,11-11.2,17.3-23,17.5l15.9,23.8l-16.5-3.4l-14.5-23l-3.9,19.1l-13-2.7
						l13-63L553.1,236.9z M572.1,263.8c2.4-11.6-4.6-22.5-19.2-25.6l-20.3-4.2L520,294.4l10.3,2.1l4.3-21.1l16,25.3l12.6,2.6
						l-15.5-23.2C560.9,281.1,570,273.7,572.1,263.8z"/>
					<path class="st4" d="M552.8,238.2c14.7,3,21.6,13.9,19.2,25.6c-2.1,9.9-11.2,17.3-24.3,16.3l15.5,23.2l-12.6-2.6l-16-25.3
						l-4.3,21.1l-10.3-2.1l12.4-60.3L552.8,238.2z M561.5,261.9c1.7-8.5-2.8-14-10.7-15.6l-9.8-2l-5.3,25.8l8,1.6
						C553.6,273.7,559.8,270.5,561.5,261.9z"/>
					<path d="M550.9,246.3c7.9,1.6,12.4,7.2,10.7,15.6c-1.8,8.5-8,11.8-17.8,9.7l-8-1.6l5.3-25.8L550.9,246.3z M560.2,261.6
						c1.5-7.6-2.5-12.5-9.6-14l-8.5-1.7l-4.8,23l6.7,1.4C553,272.2,558.6,269.3,560.2,261.6z"/>
					<path d="M494,227l-1,11.2l-26.2-2.3l-1.5,17.2l22,1.9l-1,11.2l-22-1.9l-1.2,13.4l27,2.3l-1,11.2l-40.2-3.5l5.5-64.1L494,227z
						 M491.8,236.7l0.7-8.4l-36.6-3.2l-5.3,61.4l37.5,3.2l0.7-8.4l-27-2.3l1.4-16.1l22,1.9l0.7-8.4l-22-1.9l1.7-20L491.8,236.7z"/>
					<polygon class="st4" points="492.5,228.3 491.8,236.7 465.6,234.4 463.9,254.4 485.8,256.3 485.1,264.7 463.1,262.8 
						461.7,278.9 488.7,281.3 488,289.7 450.6,286.4 455.9,225.1 					"/>
					<path d="M421.6,275.5l0.3,11.2l-39,1.2l-1.9-64.3l13.2-0.4l1.6,53.1L421.6,275.5z M420.5,285.4l-0.3-8.5l-25.8,0.8l-1.6-53.1
						l-10.5,0.3l1.8,61.5L420.5,285.4z"/>
					<polygon class="st4" points="420.2,276.9 420.5,285.4 384.2,286.4 382.4,224.9 392.8,224.6 394.4,277.7 					"/>
					<path d="M354.1,278.9l1.7,11.1l-38.6,5.8l-9.6-63.6l13.1-2l7.9,52.5L354.1,278.9z M354.2,288.8l-1.3-8.4l-25.6,3.8l-7.9-52.5
						l-10.4,1.5l9.2,60.9L354.2,288.8z"/>
					<polygon class="st4" points="353,280.4 354.2,288.8 318.3,294.2 309.2,233.3 319.5,231.7 327.4,284.3 					"/>
					<path d="M249.9,245.6L293,300l-13.2,3.9l-6.2-8.1l-26.6,7.8l-0.8,10.2l-13.2,3.9l6.9-69.1L249.9,245.6z M290.6,299.3
						l-41.2-52.1l-8.5,2.5l-6.6,66.1l10.4-3l0.8-10.2l28.4-8.3l6.2,8.1L290.6,299.3z"/>
					<path class="st4" d="M249.4,247.2l41.2,52.1l-10.4,3l-6.2-8.1l-28.4,8.3l-0.8,10.2l-10.4,3l6.6-66.1L249.4,247.2z M268.7,287.2
						L249,261.5l-2.7,32.2L268.7,287.2z"/>
					<path d="M249,261.5l19.7,25.7l-22.4,6.6L249,261.5z M266.4,286.4l-16.3-21.3l-2.2,26.7L266.4,286.4z"/>
					<path d="M198.2,295.6l12.7,27.4c-4.7,5.5-10.8,9.6-17.9,12.8c-18.8,8.7-38,2.7-46.3-15.2c-8-17.2-1.1-36.2,17.7-44.8
						c6.6-3.1,13.1-4.5,19.3-4.2l0.7,11.2c-5.6-0.1-10.3,1-15.5,3.4c-10.9,5-15.8,16.5-10.1,28.8c5.8,12.5,18.7,15.6,29.8,10.4
						c2.5-1.2,5.1-2.7,6.7-4.2l-4.5-9.8l-11.8,5.5l-4.7-10.2L198.2,295.6z M209.3,322.8l-11.7-25.3l-21.3,9.9l3.6,7.7l11.8-5.5
						l5.6,12c-2.2,2.1-5.2,3.9-7.8,5.2c-11.8,5.5-25.5,2.2-31.6-11.1c-6-13-0.9-25.2,10.7-30.6c5-2.3,9.1-3.5,14.6-3.5l-0.5-8.6
						c-5.6-0.1-11.4,1.4-17.5,4.2c-18,8.3-24.7,26.5-17,43c8,17.2,26.5,22.9,44.5,14.5C199,331.6,204.7,327.8,209.3,322.8z"/>
					<path class="st4" d="M197.5,297.5l11.7,25.3c-4.5,5-10.3,8.8-16.8,11.8c-18,8.3-36.5,2.6-44.5-14.5c-7.6-16.5-1-34.7,17-43
						c6.1-2.8,11.9-4.3,17.5-4.2l0.5,8.6c-5.5,0-9.6,1.2-14.6,3.5c-11.7,5.4-16.8,17.6-10.7,30.6c6.1,13.2,19.8,16.5,31.6,11.1
						c2.7-1.2,5.7-3,7.8-5.2l-5.6-12l-11.8,5.5l-3.6-7.7L197.5,297.5z"/>
				</g>
				<g>
					<path class="st5" d="M184.5,282.8c-5.6-0.1-10.3,1-15.5,3.4c-10.9,5-15.8,16.5-10.1,28.8c5.8,12.5,18.7,15.6,29.8,10.4
						c2.5-1.2,5.1-2.7,6.7-4.2l-4.5-9.8l-11.8,5.5l-4.7-10.2l23.8-11l12.7,27.4c-4.7,5.5-10.8,9.6-17.9,12.8
						c-18.8,8.7-38,2.7-46.3-15.2c-8-17.2-1.1-36.2,17.7-44.8c6.6-3.1,13.1-4.5,19.3-4.2L184.5,282.8z"/>
					<path class="st5" d="M182.5,272.9c-5.6-0.1-11.4,1.4-17.5,4.2c-18,8.3-24.7,26.5-17,43c8,17.2,26.5,22.9,44.5,14.5
						c6.5-3,12.3-6.8,16.8-11.8l-11.7-25.3l-21.3,9.9l3.6,7.7l11.8-5.5l5.6,12c-2.2,2.1-5.2,3.9-7.8,5.2
						c-11.8,5.5-25.5,2.2-31.6-11.1c-6-13-0.9-25.2,10.7-30.6c5-2.3,9.1-3.5,14.6-3.5L182.5,272.9z"/>
					<polygon class="st5" points="273.5,295.8 246.9,303.6 246,313.8 232.8,317.7 239.7,248.7 249.9,245.6 293,300.1 279.7,304 
											"/>
					<polygon class="st5" points="280.2,302.4 290.6,299.3 249.4,247.2 240.9,249.7 234.3,315.8 244.8,312.8 245.6,302.6 274,294.3 
											"/>
					<polygon class="st5" points="249,261.5 268.7,287.2 246.3,293.7 					"/>
					<polygon class="st5" points="247.8,291.9 266.4,286.4 250.1,265.1 					"/>
					<polygon class="st5" points="307.6,232.1 320.7,230.2 328.6,282.7 354.1,278.9 355.8,289.9 317.2,295.8 					"/>
					<polygon class="st5" points="318.3,294.2 354.2,288.8 353,280.4 327.4,284.3 319.5,231.7 309.2,233.3 					"/>
					<polygon class="st5" points="380.9,223.6 394.2,223.2 395.7,276.3 421.6,275.5 421.9,286.7 382.9,287.9 					"/>
					<polygon class="st5" points="384.2,286.4 420.5,285.4 420.2,276.9 394.4,277.7 392.8,224.6 382.4,224.9 					"/>
					<polygon class="st5" points="454.6,223.6 494,227 493,238.2 466.8,235.9 465.3,253.1 487.3,255 486.4,266.2 464.4,264.3 
						463.2,277.7 490.2,280 489.3,291.2 449.1,287.7 					"/>
					<polygon class="st5" points="450.6,286.4 488,289.7 488.7,281.3 461.7,278.9 463.1,262.8 485.1,264.7 485.8,256.3 463.9,254.4 
						465.6,234.4 491.8,236.7 492.5,228.3 455.9,225.1 					"/>
					<path class="st5" d="M550.4,281.6l15.9,23.8l-16.5-3.4l-14.5-23l-3.9,19.1l-13-2.7l13-63l21.7,4.5
						c15.5,3.2,22.8,14.8,20.3,27.2C571.1,275.1,562.2,281.4,550.4,281.6z"/>
					<path class="st5" d="M552.8,238.2l-20.3-4.2L520,294.4l10.3,2.1l4.3-21.1l16,25.3l12.6,2.6l-15.5-23.2
						c13.1,1,22.2-6.4,24.3-16.3C574.4,252.2,567.5,241.3,552.8,238.2z"/>
					<path class="st5" d="M541.1,244.3l9.8,2c7.9,1.6,12.4,7.2,10.7,15.6c-1.8,8.5-8,11.8-17.8,9.7l-8-1.6L541.1,244.3z"/>
					<path class="st5" d="M537.4,268.9l6.7,1.4c8.9,1.8,14.6-1,16.1-8.7c1.5-7.6-2.5-12.5-9.6-14l-8.5-1.7L537.4,268.9z"/>
					<polygon class="st5" points="625.1,255.6 606.3,317.1 593.6,313.3 612.4,251.7 					"/>
					<polygon class="st5" points="613.3,253.5 595.3,312.3 605.4,315.4 623.3,256.5 					"/>
					<polygon class="st5" points="676.3,333.1 650.7,322.5 643.6,329.9 630.9,324.7 679.5,275.1 689.4,279.2 688.8,348.6 
						676.1,343.3 					"/>
					<polygon class="st5" points="677.5,342.4 687.5,346.5 688,280.1 679.8,276.7 633.3,324.2 643.3,328.3 650.4,320.9 677.7,332.2 
											"/>
					<polygon class="st5" points="678.7,291 678,323.3 656.4,314.4 					"/>
					<polygon class="st5" points="658.8,313.9 676.6,321.3 677.3,294.5 					"/>
				</g>
			</g>
		</g>
		<circle class="st4" cx="65.2" cy="371.6" r="5.2"/>
		<circle class="st4" cx="778.4" cy="362.8" r="5.2"/>
		<path class="st6" d="M159.6,438.1c0-53.9,150.3-97.5,336.1-97.5"/>
		<g>
			<g>
				<path class="st7" d="M212.2,416c-0.2,1.7-1.3,3.8-3.5,4.7c-3.1,1.2-6.6-0.3-8.1-3.9s-0.1-7.2,3-8.4c2.3-0.9,4.5-0.1,5.8,1
					l-0.5,0.2c-0.7-0.5-2.8-1.7-5.2-0.7c-2.8,1.2-4.1,4.5-2.7,7.8c1.4,3.3,4.6,4.8,7.5,3.7c2.5-1,3.1-3.5,3.2-4.1L212.2,416z"/>
				<path class="st7" d="M216.4,417.4l-4.6-12.1l0.4-0.2l2.2,5.8l6-2.3l-2.2-5.8l0.4-0.2l4.6,12.1l-0.4,0.2l-2.2-5.9l-6,2.3l2.2,5.9
					L216.4,417.4z"/>
				<path class="st7" d="M222.6,401.3l5.9-2.1l0.2,0.4l-5.5,2l1.9,5.4l5.5-2l0.2,0.4l-5.5,2l2,5.5l5.5-2l0.2,0.4l-5.9,2.1
					L222.6,401.3z"/>
				<path class="st7" d="M232.2,397.8l6-2l0.2,0.4l-5.5,1.9l1.8,5.4l5.5-1.9l0.2,0.4l-5.5,1.9l1.9,5.5l5.5-1.9l0.2,0.4l-6,2
					L232.2,397.8z"/>
				<path class="st7" d="M244.8,403.8c1,2.3,2.8,2.3,3.6,2c1.4-0.4,2.4-2,1.8-3.8c-0.7-2.3-2.6-2.2-3.8-2.1c-1,0-3.1,0.1-3.9-2.2
					c-0.7-2,0.4-3.7,2-4.2c1.3-0.4,2.9,0,3.7,2l-0.4,0.1c-0.5-0.9-1.4-2.2-3.2-1.6c-1.4,0.4-2.2,1.9-1.7,3.5c0.6,2,2.2,2,3.9,1.9
					c0.6,0,2.9-0.3,3.8,2.4c0.6,2-0.5,3.9-2.1,4.5c-1.3,0.4-3.3,0-4.2-2.3L244.8,403.8z"/>
				<path class="st7" d="M251.3,391.7l6.1-1.8l0.1,0.5l-5.6,1.7l1.6,5.5l5.6-1.7l0.1,0.5l-5.6,1.7l1.7,5.5l5.6-1.7l0.1,0.5l-6,1.6
					L251.3,391.7z"/>
				<path class="st7" d="M269.8,391.5c0.7-0.2,1.5,0.3,1.7,1.1c0.2,0.8-0.2,1.6-0.9,1.8c-0.8,0.2-1.5-0.3-1.7-1.1
					C268.6,392.5,269,391.7,269.8,391.5L269.8,391.5z"/>
				<path class="st7" d="M279.9,383.8l6.1-1.5l0.1,0.5l-5.7,1.4l1.3,5.5l5.7-1.4l0.1,0.5l-5.7,1.4l1.4,5.6l5.7-1.4l0.1,0.5l-6.1,1.5
					L279.9,383.8z"/>
				<path class="st7" d="M305,391.5c-0.4,0-0.8,0-1.1,0c-1.1,0-1.6-0.3-2.5-0.6c-0.5,0.6-1.5,1.6-3.2,2c-3.6,0.8-6.6-1.8-7.3-5.3
					c-0.8-3.8,1.2-7.1,4.4-7.8c3.2-0.7,6.4,1.5,7.3,5.3c0.6,2.8-0.4,4.5-0.9,5.4c1,0.4,1.7,0.5,3.1,0.4L305,391.5z M295.5,380.4
					c-3,0.6-4.8,3.7-4.1,7.2c0.2,1.1,0.6,1.7,0.8,2c0.6-0.4,1.3-0.8,2.5-1.1c1.2-0.3,2.5-0.2,3.5,0.2c0.5,0.2,0.8,0.3,3.1,1.5
					c1-1.5,1.2-3.2,0.8-5C301.5,381.8,298.5,379.8,295.5,380.4L295.5,380.4z M298.2,392.5c1.4-0.3,2.4-1.2,2.8-1.8
					c-0.3-0.2-2.2-1.2-2.2-1.2c-1.4-0.6-2.7-0.8-4.1-0.5c-1.1,0.2-1.7,0.7-2.3,1.1C294.5,393,297.1,392.8,298.2,392.5L298.2,392.5z"
					/>
				<path class="st7" d="M305.6,378.1l1.6,8.2c0.2,1.2,0.4,2,1.3,2.9c0.6,0.6,1.6,0.9,2.5,0.7c0.9-0.2,1.7-0.8,2.1-1.6
					c0.5-1.2,0.4-2,0.1-3.2l-1.6-8.2l0.5-0.1l1.6,8.2c0.2,1.1,0.5,2.9-0.6,4.2c-0.5,0.6-1.2,1-2,1.2c-0.8,0.1-1.6,0-2.2-0.4
					c-1.5-0.8-1.9-2.5-2.1-3.6l-1.6-8.2L305.6,378.1z"/>
				<path class="st7" d="M316.1,376.1l0.5-0.1l2.3,12.7l-0.5,0.1L316.1,376.1z"/>
				<path class="st7" d="M323,374.9c1.4-0.2,2.1-0.2,3,0.3c0.8,0.4,1.4,1.5,1.6,2.7s-0.1,2.4-0.7,3c-0.6,0.7-1.4,1-2.7,1.2l-2.2,0.4
					l0.9,5.5l-0.5,0.1l-2.1-12.7L323,374.9z M321.9,382l2.2-0.4c1.3-0.2,1.9-0.5,2.5-1.1c0.5-0.5,0.7-1.6,0.5-2.6s-0.7-2-1.3-2.3
					c-0.7-0.4-1.4-0.5-2.7-0.3l-2.2,0.4L321.9,382z"/>
				<path class="st7" d="M332,386.5l-1.8-12.8l0.7-0.1l7,11.2l3.6-12.7l0.7-0.1l1.8,12.8l-0.5,0.1l-1.7-12.3l-3.7,13h-0.3l-7.1-11.5
					l1.7,12.3L332,386.5z"/>
				<path class="st7" d="M346.3,371.5l6.3-0.7l0.1,0.5l-5.8,0.7l0.7,5.7l5.8-0.7l0.1,0.5l-5.8,0.7l0.7,5.8l5.8-0.7l0.1,0.5l-6.3,0.7
					L346.3,371.5z"/>
				<path class="st7" d="M366.3,381.7l-1.2-12.2h0.5l1.3,12.8l-0.6,0.1l-9.2-11.5l1.2,12.3h-0.5l-1.3-12.8l0.7-0.1L366.3,381.7z"/>
				<path class="st7" d="M371.7,369.4l-3.1,0.2v-0.5l6.7-0.5v0.5l-3.1,0.2l1,12.4h-0.5L371.7,369.4z"/>
				<path class="st7" d="M386.2,372.9c0.7,0,1.4,0.6,1.4,1.4s-0.5,1.5-1.3,1.6c-0.8,0-1.4-0.6-1.4-1.4
					C384.9,373.7,385.4,373,386.2,372.9L386.2,372.9z"/>
				<path class="st7" d="M458.6,373.2c0.7,0,1.3,0.7,1.2,1.6c0,0.8-0.7,1.4-1.4,1.4c-0.8,0-1.3-0.7-1.3-1.6
					C457.2,373.7,457.8,373.1,458.6,373.2L458.6,373.2z"/>
				<path class="st7" d="M469.7,368.9h0.5l2,12.4l4-11.9h0.3l1.9,12.4l4.1-11.9h0.5l-4.4,12.6l-0.6-0.1l-1.8-11.7l-3.8,11.2
					l-0.6-0.1L469.7,368.9z"/>
				<path class="st7" d="M486.2,370.5h0.5l-1.3,12.8h-0.5L486.2,370.5z"/>
				<path class="st7" d="M497.9,384.1l1.4-12.1l0.5,0.1l-1.5,12.8l-0.6-0.1l-6.5-13.2l-1.4,12.3l-0.5-0.1l1.5-12.8l0.7,0.1
					L497.9,384.1z"/>
				<path class="st7" d="M503.8,372.5l6.3,0.8l-0.1,0.5l-5.8-0.8l-0.8,5.7l5.8,0.8l-0.1,0.5l-5.8-0.8l-0.8,5.7l5.8,0.8l-0.1,0.5
					l-6.3-0.8L503.8,372.5z"/>
				<path class="st7" d="M520.8,379.9c0.7,0.1,1.2,0.9,1.1,1.7c-0.1,0.8-0.8,1.4-1.6,1.3s-1.3-0.9-1.1-1.7
					C519.3,380.3,520,379.8,520.8,379.9L520.8,379.9z"/>
				<path class="st7" d="M541.6,388.7c-1,1.3-3.1,2.5-5.5,2.1c-3.2-0.6-5.4-3.8-4.7-7.6c0.7-3.8,3.8-6.1,7.1-5.5
					c2.4,0.5,3.8,2.4,4.4,4l-0.5-0.1c-0.3-0.7-1.5-2.9-4-3.4c-3-0.5-5.9,1.6-6.5,5.1s1.3,6.5,4.3,7.1c2.6,0.5,4.5-1.3,4.9-1.7H541.6
					z"/>
				<path class="st7" d="M544.3,392.1l2.5-12.7l0.5,0.1l-1.2,6.1l6.3,1.3l1.2-6.1l0.5,0.1l-2.5,12.7l-0.5-0.1l1.2-6.1L546,386
					l-1.2,6.1H544.3z"/>
				<path class="st7" d="M554.8,394.2l-0.5-0.1l7.5-11.6l0.6,0.1l2.1,13.7l-0.5-0.1l-0.7-4.8l-5.9-1.3L554.8,394.2z M562.1,383.1
					l-4.3,6.7l5.5,1.2L562.1,383.1z"/>
				<path class="st7" d="M570.1,384.3l2.6,0.6c1.7,0.4,2.4,0.7,2.9,1.2c0.8,0.7,1.2,2.3,0.8,3.7c-0.2,0.8-0.6,1.7-1.3,2.4
					c-1.1,1-2.1,1-3.4,0.7l1.9,5.4l-0.6-0.1l-2.1-6l0.3,0.1c0.8,0.2,2.2,0.5,3-0.1c0.9-0.7,1.3-1.5,1.6-2.5c0.3-1.1,0.1-2.4-0.7-3.2
					c-0.6-0.7-1.4-0.9-2.7-1.2l-2.1-0.5l-2.8,12.1l-0.5-0.1L570.1,384.3z"/>
				<path class="st7" d="M588,399.1c-1.1,1.2-3.3,2.3-5.6,1.7c-3.2-0.8-5.1-4.2-4.2-7.9s4.2-5.8,7.4-5c2.4,0.6,3.7,2.6,4.1,4.2
					l-0.5-0.1c-0.3-0.8-1.2-3-3.7-3.6c-3-0.7-6,1.2-6.9,4.7s0.9,6.6,3.8,7.4c2.6,0.7,4.5-1,5-1.4L588,399.1z"/>
				<path class="st7" d="M594.3,390.3l-2.2,8.1c-0.3,1.2-0.5,2-0.1,3.2c0.3,0.8,1.1,1.5,2,1.8c0.8,0.2,1.9,0,2.5-0.5
					c1-0.8,1.2-1.6,1.5-2.8l2.2-8.1l0.5,0.1l-2.2,8.1c-0.3,1.1-0.8,2.8-2.4,3.5c-0.7,0.3-1.5,0.4-2.3,0.2c-0.8-0.2-1.4-0.7-1.9-1.3
					c-1-1.4-0.6-3.1-0.3-4.2l2.2-8.1L594.3,390.3L594.3,390.3z"/>
				<path class="st7" d="M606.4,394.1l-3-0.9l0.1-0.5l6.5,1.8l-0.1,0.5l-3-0.9l-3.4,12L603,406L606.4,394.1z"/>
				<path class="st7" d="M612.8,395.5l6.1,1.8l-0.1,0.5l-5.6-1.7l-1.6,5.5l5.6,1.7l-0.1,0.5l-5.6-1.7l-1.7,5.6l5.6,1.7l-0.1,0.5
					l-6.1-1.8L612.8,395.5z"/>
				<path class="st7" d="M622.4,398.4l2.5,0.8c1.7,0.5,2.3,0.9,2.8,1.4c0.7,0.8,1,2.3,0.6,3.8c-0.2,0.8-0.7,1.7-1.5,2.3
					c-1.2,0.9-2.1,0.8-3.4,0.4l1.5,5.6l-0.6-0.2l-1.6-6.1l0.3,0.1c0.8,0.3,2.1,0.7,3.1,0.1s1.5-1.4,1.8-2.3c0.3-1.1,0.2-2.4-0.4-3.3
					c-0.5-0.7-1.3-1-2.6-1.4l-2.1-0.6l-3.7,11.9l-0.4-0.1L622.4,398.4z"/>
				<path class="st7" d="M632.4,401.5l0.4,0.1l-4,12.3l-0.4-0.1L632.4,401.5z"/>
				<path class="st7" d="M636.7,402.9l6,2l-0.2,0.4l-5.5-1.9l-1.8,5.4l5.5,1.9l-0.2,0.4l-5.5-1.9l-1.9,5.5l5.5,1.9l-0.2,0.4l-6-2
					L636.7,402.9z"/>
			</g>
		</g>
		<rect x="395.6" y="353.1" class="st6" width="55.4" height="54.4"/>
		<text transform="matrix(1 0 0 1 406.6213 381.0294)" class="st3 st8 st9">Q</text>
	</g>
</g>
</svg>
