<?xml version="1.0" encoding="utf-8"?>
<!-- Generator: Adobe Illustrator 19.1.0, SVG Export Plug-In . SVG Version: 6.00 Build 0)  -->
<svg version="1.1" id="Layer_1" xmlns="http://www.w3.org/2000/svg" xmlns:xlink="http://www.w3.org/1999/xlink" x="0px" y="0px"
	 viewBox="0 0 841.9 595.3" style="enable-background:new 0 0 841.9 595.3;" xml:space="preserve">
<style type="text/css">
	.st0{fill:#FFFFFF;stroke:#010101;stroke-width:1.25;stroke-miterlimit:10;}
	.st1{fill:none;stroke:#E1AA25;stroke-miterlimit:10;}
	.st2{fill:#E1AA25;}
	.st3{fill:none;stroke:#000000;stroke-width:0.75;stroke-miterlimit:10;}
	.st4{fill:#010101;}
	.st5{fill:none;}
	.st6{font-family:'ITCAvantGardeStd-XLt';}
	.st7{font-size:37.8449px;}
	.st8{letter-spacing:3;}
</style>
<path class="st0" d="M54.5,181.9L41,154c0,0,335.2-244.2,759.3-7.1c-7.2,10.3-16.8,25.6-16.8,25.6S858,270,739,261.1
	c-4.8,12.8-15.6,30.8-15.6,30.8S423.7,97,123.9,299.5l-18-29.5C105.9,270-7.7,288.6,54.5,181.9z"/>
<g>
	<path d="M166,173l-10.7-1.9l-0.2-1.9l10.8,2C165.9,171.8,166,172.4,166,173z M165.9,169.2l-10.8-1.9c0-0.6,0-1.2,0.2-1.8l10.6,1.9
		C165.9,168,165.9,168.6,165.9,169.2z M156.1,161.9l10.7,1.9c-0.2,0.6-0.4,1.2-0.5,1.8l-10.7-1.9L156.1,161.9z M167,176.9l-10.6-1.9
		c-0.3-0.6-0.5-1.4-0.6-2l10.7,1.9C166.6,175.6,166.8,176.3,167,176.9z M167.7,162l-10.8-1.9c0.3-0.6,0.7-1.2,1-1.7l10.7,1.8
		C168.1,160.9,168,161.6,167.7,162z M158.1,179c-0.4-0.6-0.7-1.3-1-2l10.7,1.8l1,2.1L158.1,179z M169.6,158.7l-10.7-1.9l1.4-1.6
		l10.7,1.9C170.5,157.7,170,158.1,169.6,158.7z M159.4,181.2L170,183c0.5,0.8,1,1.5,1.5,2.1l-10.4-1.9
		C160.4,182.6,159.8,181.9,159.4,181.2z M172.7,155.5l-10.6-1.9c0.6-0.6,1.2-1.1,1.9-1.5l10.7,1.8C174,154.5,173.4,155,172.7,155.5z
		 M163.5,185.6l10.2,1.8c1,0.9,2,1.6,3.1,2.2l-1.2,0l-7.4-1.3C166.6,187.7,164.9,186.8,163.5,185.6z M177.3,152.6l-10.5-1.9
		c1-0.5,2-0.9,3.2-1.3l10.4,1.9L177.3,152.6z M183.9,150.1l-10.1-1.8c1.9-0.4,3.9-0.6,5.9-0.8l8.8,1.6
		C186.9,149.3,185.3,149.7,183.9,150.1z M174.5,204.2c2,0.1,4.1-0.1,6.3-0.5l10.1,1.8c-3.8,0.6-7.2,0.6-10.5-0.1L174.5,204.2z
		 M183.8,178.1l4.8,0.8l1,2.1l-8.7-1.5L183.8,178.1z M182.5,136.7l10.7,1.9l0.1,1.9l-10.7-1.9L182.5,136.7z M182.7,140.5l10.7,1.9
		l0.1,2l-10.7-2L182.7,140.5z M183,144.3l10.7,1.9l0.1,1.9l-10.7-1.9L183,144.3z M195.5,204.5l-10.4-1.9c1.2-0.3,2.2-0.7,3.5-1.3
		l10.5,1.9L195.5,204.5z M187.7,176.9l-0.9-0.2l0.7-0.3L187.7,176.9z M202.1,201.9l-10.5-1.9c0.8-0.4,1.8-0.8,2.7-1.4l10.5,1.9
		L202.1,201.9z M207.4,199.1l-10.6-1.9c0.8-0.4,1.6-0.9,2.4-1.5l10.6,1.9L207.4,199.1z M207.8,161.1l0.3,0.8l-10.7-1.9l-0.3-0.8
		L207.8,161.1z M198.4,162l10.7,1.9l0.9,2l-10.7-1.9L198.4,162z M200.3,166.1l10.7,1.8l1,2.1l-10.7-1.9L200.3,166.1z M211.9,196.2
		l-10.6-1.8l2-1.6l10.6,2C213.3,195.2,212.6,195.7,211.9,196.2z M202.2,170.2l10.7,1.8l1,2.1l-10.7-1.9L202.2,170.2z M204.1,174.2
		l10.7,1.9l0.9,2l-10.7-1.8L204.1,174.2z M215.8,193.1l-10.6-1.9l1.7-1.6l10.7,2L215.8,193.1z M205.9,178.3l10.7,1.9l0.9,2
		l-10.7-1.8L205.9,178.3z M207.8,182.3l10.7,1.9l1,2.1l-10.8-2L207.8,182.3z M219.1,190l-10.7-1.9l1.4-1.6l-0.2-0.3l10.8,2.1
		l0.1,0.3L219.1,190z"/>
	<path d="M234.6,181l10.2,3.4l-3,0.9l-10.2-3.4L234.6,181z M240.8,179.2l10.2,3.4l-3.1,0.9l-10.2-3.4L240.8,179.2z M244.6,176.6
		l10.4,3.5l-0.1,1.4l-0.7,0.2l-10.3-3.4l0.6-0.2L244.6,176.6z M244.9,172.8l10.4,3.5l-0.1,2l-10.4-3.6L244.9,172.8z M245.2,169.1
		l10.4,3.5l-0.2,1.9l-10.4-3.5L245.2,169.1z M249.7,166.6l10.2,3.4l-3.1,0.9l-10.2-3.4L249.7,166.6z M246.8,150.1l4.6,1.6l-3.1,0.9
		l-1.6-0.7L246.8,150.1z M254.5,150.9l-7.5-2.6l0.1-1.9l10.3,3.3l0,0.2L254.5,150.9z M247.4,142.7l10.3,3.4l-0.2,1.9l-10.3-3.5
		L247.4,142.7z M247.7,138.9l7.8,2.6l2,2.7l-9.9-3.4L247.7,138.9z M251.6,136.3l1.9,2.5l-5.6-1.8l0.1-1.9L251.6,136.3z M248.3,132
		l1.3,1.7l-1.4-0.5L248.3,132z M259.5,113l0.8,1l-10.2-3.5l-0.8-0.9L259.5,113z M252.2,113.2l10.2,3.4l2.1,2.7l-10.2-3.5
		L252.2,113.2z M255.7,164.9l10.2,3.4l-3,0.9l-10.3-3.4L255.7,164.9z M256.4,118.5l10.2,3.5l2.1,2.6l-10.2-3.5L256.4,118.5z
		 M261.9,163.1l10.2,3.4l-3,0.9l-10.3-3.4L261.9,163.1z M260.6,123.8l10.1,3.4l2.1,2.7l-10.2-3.5L260.6,123.8z M264.8,129.2
		l10.2,3.4l2.1,2.7l-10.2-3.5L264.8,129.2z M268.1,161.2l3.5,1.2l2,2.7l-8.6-2.9L268.1,161.2z M269,134.4l10.1,3.5l2.1,2.7
		l-10.2-3.5L269,134.4z M273.2,139.7l10.2,3.4l2.1,2.6l-10.2-3.4L273.2,139.7z M277.3,145l10.2,3.5l2.1,2.6l-10.2-3.4L277.3,145z
		 M283.8,166.6l10.1,3.5l-3,0.9l-10.1-3.5L283.8,166.6z M281.6,150.3l10.1,3.5l2.1,2.6l-10.2-3.4L281.6,150.3z M285.7,155.5
		l10.1,3.5l2.2,2.6l-10.2-3.4L285.7,155.5z M290,164.8l10.2,3.4l-3.2,0.9l-10.1-3.5L290,164.8z M290,160.9l10.1,3.5l2.1,2.7
		l-10.1-3.5L290,160.9z"/>
	<path d="M319.5,159.6l9.5,4.8l-3.1,0.5l-9.6-4.8L319.5,159.6z M329.4,100.9l-9.7-4.9l-0.3-1.9l9.7,4.9L329.4,100.9z M320,98.3
		l9.7,4.9l0.3,2.2l-9.7-4.8L320,98.3z M320.7,102.7l9.7,4.9l0.3,2.2L321,105L320.7,102.7z M321.4,107.2l9.7,4.9l0.3,2.2l-9.7-4.9
		L321.4,107.2z M322,111.6l9.7,4.8l0.3,2.3l-9.7-4.9L322,111.6z M325.8,158.6l9.6,4.8l-3.1,0.5l-9.6-4.8L325.8,158.6z M322.7,116.1
		l9.7,4.8l0.3,2.3l-9.7-4.9L322.7,116.1z M323.4,120.4l9.7,4.9l0.3,2.3l-9.7-4.9L323.4,120.4z M324,124.9l9.7,4.9l0.3,2.2l-9.7-4.8
		L324,124.9z M324.7,129.3l9.7,4.9l0.3,2.2l-9.7-4.9L324.7,129.3z M325.4,133.8l9.7,4.9l0.3,2.2l-9.7-4.9L325.4,133.8z M332.6,143.5
		l-6.2-3.1l-0.3-2.2l9.7,4.8L332.6,143.5z M326.7,142.6l2.6,1.4l-2.4,0.4L326.7,142.6z M332.1,157.7l9.6,4.8l-3.2,0.5l-9.6-4.8
		L332.1,157.7z M338.5,156.7l9.5,4.8L345,162l-9.6-4.8L338.5,156.7z M344.9,155.8l9.6,4.8l-3.2,0.5l-9.6-4.8L344.9,155.8z
		 M351.2,154.8l9.5,4.8l-3.2,0.5l-9.5-4.8L351.2,154.8z M352.9,143.3l9.7,4.9l0.3,2.3l-9.7-4.9L352.9,143.3z M353.6,147.8l9.7,4.9
		l0.3,2.3l-9.8-4.9L353.6,147.8z M364,159.1l-9.6-4.8l0.2,0l-0.3-2.1l9.7,4.9l0.3,2L364,159.1z"/>
	<path d="M385.1,152.3l8.9,5.9l-3.1,0.1l-9-5.9L385.1,152.3z M391.4,152.1l9,5.9l-3.1,0.1l-9-5.9L391.4,152.1z M401.9,95.2l-9.1-6
		l-0.1-1.9l9.1,6L401.9,95.2z M392.9,91.5l9.1,6l0.1,2.2l-9.1-5.9L392.9,91.5z M393,96l9.1,6l0.1,2.2l-9.1-5.9L393,96z M393.2,100.5
		l9.1,6l0.1,2.2l-9.1-6L393.2,100.5z M393.3,105l9.1,5.9l0.1,2.3l-9.1-6L393.3,105z M393.4,109.5l9.1,5.9l0.1,2.3l-9.1-6
		L393.4,109.5z M393.6,113.9l9.1,6l0.1,2.3l-9.1-6L393.6,113.9z M393.7,118.4l9.1,6l0.1,2.2l-9.1-5.9L393.7,118.4z M393.8,122.9
		l9.1,6l0.1,2.2l-9.1-6L393.8,122.9z M394,127.4l9.1,6l0.1,2.2l-9.1-6L394,127.4z M400,137.9l-5.8-3.8l-0.1-2.2l9.1,5.9L400,137.9z
		 M394.2,136.3l2.4,1.7l-2.4,0.1L394.2,136.3z M397.8,151.9l9,5.9l-3.2,0.1l-9-5.9L397.8,151.9z M404.3,151.7l8.9,5.9l-3.1,0.1
		l-9-5.9L404.3,151.7z M410.7,151.5l9,5.9l-3.2,0.1l-9-5.9L410.7,151.5z M417.1,151.3l8.9,5.9l-3.2,0.1l-8.9-5.9L417.1,151.3z
		 M420.2,140.1l9.1,6l0.1,2.3l-9.1-6L420.2,140.1z M420.3,144.6l9.1,6l0.1,2.3l-9.1-6.1L420.3,144.6z M429.3,157.1l-9-5.9l0.2,0
		l-0.1-2.1l9.1,6l0.1,2L429.3,157.1z"/>
	<path d="M451.1,152.7l8.2,6.9l-3.1-0.3l-8.3-6.9L451.1,152.7z M457.4,153.2l8.3,6.9l-3.1-0.3l-8.3-6.9L457.4,153.2z M463.8,153.8
		l8.3,6.9l-3.2-0.3l-8.3-6.9L463.8,153.8z M462.1,137.9l2.2,1.9l-2.4-0.2L462.1,137.9z M467.6,140.1l-5.3-4.4l0.2-2.2l8.3,6.9
		L467.6,140.1z M471.2,136l-0.2,2.2l-8.3-7l0.2-2.2L471.2,136z M464.4,111.1l5.4,4.4l-3.3-0.3l-2.3-2L464.4,111.1z M472.9,115.9
		l-8.3-7l0.2-2.2l8.3,6.9L472.9,115.9z M465.2,102.2l8.3,7l-0.2,2.2l-8.3-7L465.2,102.2z M469.2,129.6l8.3,6.9l-3.3-0.3l-8.3-6.9
		L469.2,129.6z M469.4,101l8.3,6.9l-3.2-0.3l-8.3-6.9L469.4,101z M470.1,154.4l8.3,6.9l-3.1-0.3l-8.3-6.9L470.1,154.4z M475.6,130.1
		l8.3,6.9l-3.2-0.3l-8.3-6.9L475.6,130.1z M475.8,101.5l8.3,6.9l-3.3-0.3l-8.2-6.9L475.8,101.5z M476.6,154.9l8.2,6.9l-3.1-0.3
		l-8.3-6.9L476.6,154.9z M482,130.7l8.3,6.9l-3.1-0.3l-8.3-6.9L482,130.7z M482.2,102.1l8.3,6.9l-3.2-0.3l-8.3-6.9L482.2,102.1z
		 M483,155.5l8.2,6.9l-3.2-0.3l-8.3-6.9L483,155.5z M485,128.3l8.3,7l-0.2,2.2l-8.3-7L485,128.3z M485.4,123.9l8.3,7.1l-0.2,2.2
		l-8.3-7L485.4,123.9z M488.5,102.6l8.3,6.9l-3.2-0.3l-8.3-6.9L488.5,102.6z M485.8,119.4l8.3,7l-0.2,2.3l-8.3-7L485.8,119.4z
		 M494.4,162.6l-8.2-6.9l1.5,0.1l0.1-1.2l8.3,7l-0.1,1.1L494.4,162.6z M488.2,150.2l8.3,7l-0.2,2.2l-8.3-7L488.2,150.2z
		 M488.6,145.8l8.3,6.9l-0.2,2.3l-8.3-7L488.6,145.8z M491.7,100.2l8.3,7.1l-0.2,2.3l-8.3-7.1L491.7,100.2z M492.1,95.8l8.3,7
		l-0.2,2.3l-8.3-7.1L492.1,95.8z M492.5,91.3l8.3,7l-0.2,2.3l-8.3-7.1L492.5,91.3z"/>
	<path d="M517,160.4l3.2,0.6l7.3,7.8l-3.1-0.6L517,160.4z M526.5,162.3l7.3,7.8l-3.1-0.6l-7.4-7.8L526.5,162.3z M530.1,160.8
		l7.5,7.9l-0.4,2.1l-0.3-0.1l-7.2-7.7L530.1,160.8z M531,156.4l7.5,7.9l-0.4,2.2l-7.5-7.8L531,156.4z M531.9,152l7.5,7.9l-0.4,2.2
		l-7.5-7.8L531.9,152z M540.1,156.5l-0.2,1.2l-7.5-7.9l0.4-2.2l4.7,4.9L540.1,156.5z M536.4,130l1.4,1.4l-1.6-0.3L536.4,130z
		 M540.9,132l-4-4.3l0.4-2.2l6.6,7.1L540.9,132z M538.2,121.3l7.5,7.8l-0.5,2.3l-7.5-8L538.2,121.3z M539.1,116.8l7.5,7.8l-0.5,2.3
		l-7.5-7.9L539.1,116.8z M540,112.4l7.5,7.9l-0.4,2.2l-7.5-7.9L540,112.4z M544.4,111.5l7.3,7.8l-3.2-0.6l-7.3-7.8L544.4,111.5z
		 M555.3,120.1l-0.5-0.1l-7.3-7.8l0.2,0c1.3,0.3,2.3,0.7,3.4,1.2l4.6,4.7c0.3,0.8,0.5,1.6,0.6,2.2
		C556,120.2,555.6,120.1,555.3,120.1z M549.1,166.9l2.5,0.5l7.4,7.8l-2.5-0.5L549.1,166.9z M551.5,145.8l7.5,7.8l-1.6,0.2l2.1,3.1
		l-6.8-7.2l-2.5-3.7L551.5,145.8z M555.7,145l7.3,7.8c-0.7,0.2-1.4,0.4-2.1,0.5l-7.3-7.8C554.3,145.4,555,145.2,555.7,145z
		 M557.8,168.7l7.5,7.8l-3.2-0.6l-7.5-7.8L557.8,168.7z M559.4,143.5l7.4,7.9c-0.6,0.3-1.3,0.5-1.8,0.8l-7.4-7.8
		C558.2,144.1,558.7,143.9,559.4,143.5z M571.4,175.1l-6.5-6.9l-6.2-9.2l6.7,7.1L571.4,175.1z M564.1,170l7.4,7.8l-3.2-0.6l-7.4-7.8
		L564.1,170z M562.6,141.7l7.4,7.9c-0.5,0.4-1.2,0.7-1.7,1l-7.4-7.9C561.6,142.4,562.1,142.1,562.6,141.7z M565.5,139.4l7.4,7.9
		c-0.5,0.5-0.8,0.8-1.4,1.2l-7.5-7.9C564.5,140.3,565,139.9,565.5,139.4z M568,136.6l7.5,7.9c-0.5,0.6-0.9,1-1.2,1.4l-7.5-7.9
		C567.1,137.7,567.6,137.1,568,136.6z M570,133.3l7.5,7.9c-0.3,0.7-0.6,1.2-1,1.7L569,135C569.4,134.4,569.7,133.9,570,133.3z
		 M574.1,117.1c2.3,2.4,3.7,4.5,4.7,6.9l-7.1-7.6c-0.3-1.1-0.9-2.2-1.4-3.3L574.1,117.1z M571.4,129.5l7.5,8
		c-0.2,0.7-0.4,1.4-0.7,1.9l-7.4-8C571,130.9,571.3,130.1,571.4,129.5z M572.3,125.1l7.5,7.9c-0.1,0.7-0.2,1.6-0.3,2.4l-7.5-8
		C572.1,126.6,572.2,125.9,572.3,125.1z M572.4,119.8l7.4,7.8c0.1,1,0.2,1.8,0.2,2.8l-7.4-7.8C572.5,121.7,572.5,120.8,572.4,119.8z
		"/>
	<path d="M595.2,179.2l6.6,8.4l-3-0.9l-6.6-8.5L595.2,179.2z M601.3,181.1l6.6,8.5l-3.1-0.9l-6.6-8.5L601.3,181.1z M610.9,190.5
		l-6.5-8.4l0.6-2.1l6.7,8.6l-0.6,2L610.9,190.5z M606.4,175.6l6.7,8.6l-0.6,2.1l-6.7-8.6L606.4,175.6z M607.7,171.3l6.7,8.6
		l-0.6,2.1l-6.7-8.5L607.7,171.3z M609,167l6.7,8.6l-0.6,2.1l-6.7-8.5L609,167z M610.3,162.8l6.7,8.5l-0.7,2.2l-6.7-8.6L610.3,162.8
		z M611.6,158.5l6.7,8.5l-0.7,2.2l-6.7-8.6L611.6,158.5z M612.9,154.2l6.7,8.6l-0.6,2.1l-6.7-8.6L612.9,154.2z M614.2,149.9l6.7,8.6
		l-0.6,2.1l-6.7-8.6L614.2,149.9z M615.5,145.6l6.7,8.6l-0.6,2.1l-6.7-8.5L615.5,145.6z M616.8,141.2l6.7,8.6l-0.7,2.2l-6.7-8.6
		L616.8,141.2z M618.1,137l6.7,8.5l-0.7,2.2l-6.7-8.6L618.1,137z M619.4,132.7l6.7,8.5l-0.7,2.2l-6.7-8.6L619.4,132.7z M620.8,128.4
		l6.7,8.6l-0.6,2.1l-6.7-8.6L620.8,128.4z M622.1,124.1l6.7,8.6l-0.6,2.1l-6.7-8.5L622.1,124.1z M630,128.7l-0.5,1.8l-6.7-8.5
		l0.6-1.8L630,128.7z"/>
	<path d="M631.6,190.8l5.8,9.1l-2.9-1.2l-5.8-9.1L631.6,190.8z M637.5,193.2l5.8,9.1l-3-1.2l-5.8-9.1L637.5,193.2z M642.1,193.7
		l5.9,9.2l-1,1l-0.7-0.3l-5.9-9.1l0.6,0.2L642.1,193.7z M644.7,190.8l5.9,9.2l-1.3,1.4l-5.9-9.3L644.7,190.8z M647.3,188.1l5.9,9.2
		l-1.3,1.4l-5.9-9.2L647.3,188.1z M652.3,189l5.8,9.1l-3-1.2l-5.8-9.1L652.3,189z M658.1,191.4l5.8,9.1l-2.9-1.2l-5.9-9.1
		L658.1,191.4z M660.4,174.4l2.6,4.1l-3-1.2l-0.9-1.5L660.4,174.4z M664.1,193.9l5.8,9.1l-2.9-1.2l-5.9-9.1L664.1,193.9z M666,179.7
		l-4.2-6.7l1.3-1.4l6,9.1l-0.2,0.2L666,179.7z M665.5,168.9l5.9,9.1l-1.3,1.4l-5.8-9.2L665.5,168.9z M668.2,166.1l4.4,6.9l-0.1,3.3
		l-5.6-8.9L668.2,166.1z M670,196.3l2,3.1l-0.1,3.3l-4.9-7.7L670,196.3z M672.8,166.5l-0.1,3.1l-3.2-4.9l1.3-1.4L672.8,166.5z
		 M672.9,161.1l0,2.2l-0.8-1.3L672.9,161.1z M679,210.4l5.7,9l-2.9-1.2l-5.7-9L679,210.4z M684.9,212.8l5.8,9.1l-3.1-1.3l-5.7-9
		L684.9,212.8z M687.3,209.7l5.7,9l0,3.4l-5.7-9L687.3,209.7z M687.4,202.9l5.7,9.1l0,3.4l-5.8-9L687.4,202.9z M687.4,196.2l5.7,9
		l0,3.4l-5.8-9L687.4,196.2z M687.4,189.4l5.8,9.1l0,3.4l-5.8-9L687.4,189.4z M687.5,182.7l5.8,9l0,3.4l-5.8-9L687.5,182.7z
		 M687.6,175.9l5.7,9l0,3.5l-5.7-9.1L687.6,175.9z M687.6,169.3l5.8,9.1l0,3.4l-5.8-9.1L687.6,169.3z M687.6,162.5l5.8,9l0,3.5
		l-5.8-9.1L687.6,162.5z M687.7,155.7l5.8,9.1l0,3.4l-5.8-9.1L687.7,155.7z M687.7,148.9l5.8,9.1l0,3.4l-5.8-9.1L687.7,148.9z
		 M693.5,153.3l0,1.2l-5.8-9.1l0-1.2L693.5,153.3z"/>
</g>
<path class="st1" d="M63.8,184.4l-13.2-27.7c0,0,323.9-230.5,738.3-6.6c-7,9.5-12.8,23.8-12.8,23.8s73.6,93.2-39.8,79.5
	c-4.7,11.8-15.3,28.3-15.3,28.3s-293.3-187.2-594.8,7.1l-17.6-27.1C108.6,261.7,0.2,277.5,63.8,184.4z"/>
<g>
	<g id="XMLID_1_">
		<g>
			<path d="M688.4,144.2l-0.5,69.4l-12.8-5.3l0.3-10.3l-25.7-10.6l-7,7.4l-12.7-5.3l48.6-49.6L688.4,144.2z M686.5,211.5l0.5-66.4
				l-8.2-3.4l-46.5,47.4l10,4.1l7-7.4l27.4,11.3l-0.3,10.2L686.5,211.5z"/>
			<path class="st2" d="M687,145.1l-0.5,66.4l-10-4.1l0.3-10.2l-27.4-11.3l-7,7.4l-10-4.1l46.5-47.4L687,145.1z M677,188.3l0.7-32.3
				l-22.3,23.4L677,188.3z"/>
			<path d="M677.7,156l-0.7,32.3l-21.6-8.9L677.7,156z M675.6,186.3l0.6-26.8l-18.5,19.4L675.6,186.3z"/>
			<path d="M624.1,120.6l-18.8,61.5l-12.7-3.9l18.8-61.5L624.1,120.6z M604.4,180.4l18-58.9l-10-3.1l-18,58.9L604.4,180.4z"/>
			<polygon class="st2" points="622.3,121.5 604.4,180.4 594.3,177.3 612.3,118.5 			"/>
			<path d="M552.1,101.9c15.5,3.2,22.8,14.8,20.3,27.2c-2.3,11-11.2,17.3-23,17.5l15.9,23.8l-16.5-3.4L534.3,144l-3.9,19.1l-13-2.7
				l13-63L552.1,101.9z M571.1,128.8c2.4-11.6-4.6-22.5-19.2-25.6l-20.3-4.2L519,159.4l10.3,2.1l4.3-21.1l16,25.3l12.6,2.6
				l-15.5-23.2C559.9,146.1,569,138.7,571.1,128.8z"/>
			<path class="st2" d="M551.8,103.2c14.7,3,21.6,13.9,19.2,25.6c-2.1,9.9-11.2,17.3-24.3,16.3l15.5,23.2l-12.6-2.6l-16-25.3
				l-4.3,21.1l-10.3-2.1l12.4-60.3L551.8,103.2z M560.5,126.9c1.7-8.5-2.8-14-10.7-15.6l-9.8-2l-5.3,25.8l8,1.6
				C552.6,138.7,558.8,135.5,560.5,126.9z"/>
			<path d="M549.9,111.3c7.9,1.6,12.4,7.2,10.7,15.6c-1.8,8.5-8,11.8-17.8,9.7l-8-1.6l5.3-25.8L549.9,111.3z M559.2,126.6
				c1.5-7.6-2.5-12.5-9.6-14l-8.5-1.7l-4.8,23l6.7,1.4C552,137.2,557.6,134.3,559.2,126.6z"/>
			<path d="M493,92l-1,11.2l-26.2-2.3l-1.5,17.2l22,1.9l-1,11.2l-22-1.9l-1.2,13.4l27,2.3l-1,11.2l-40.2-3.5l5.5-64.1L493,92z
				 M490.8,101.7l0.7-8.4l-36.6-3.2l-5.3,61.4l37.5,3.2l0.7-8.4l-27-2.3l1.4-16.1l22,1.9l0.7-8.4l-22-1.9l1.7-20L490.8,101.7z"/>
			<polygon class="st2" points="491.5,93.3 490.8,101.7 464.6,99.4 462.9,119.4 484.8,121.3 484.1,129.7 462.1,127.8 460.7,143.9 
				487.7,146.3 487,154.7 449.6,151.4 454.9,90.1 			"/>
			<path d="M420.6,140.5l0.3,11.2l-39,1.2l-1.9-64.3l13.2-0.4l1.6,53.1L420.6,140.5z M419.5,150.4l-0.3-8.5l-25.8,0.8l-1.6-53.1
				l-10.5,0.3l1.8,61.5L419.5,150.4z"/>
			<polygon class="st2" points="419.2,141.9 419.5,150.4 383.2,151.4 381.4,89.9 391.8,89.6 393.4,142.7 			"/>
			<path d="M353.1,143.9l1.7,11.1l-38.6,5.8l-9.6-63.6l13.1-2l7.9,52.5L353.1,143.9z M353.2,153.8l-1.3-8.4l-25.6,3.8l-7.9-52.5
				l-10.4,1.5l9.2,60.9L353.2,153.8z"/>
			<polygon class="st2" points="352,145.4 353.2,153.8 317.3,159.2 308.2,98.3 318.5,96.7 326.4,149.3 			"/>
			<path d="M248.9,110.6l43.1,54.4l-13.2,3.9l-6.2-8.1l-26.6,7.8l-0.8,10.2l-13.2,3.9l6.9-69.1L248.9,110.6z M289.6,164.3
				l-41.2-52.1l-8.5,2.5l-6.6,66.1l10.4-3l0.8-10.2l28.4-8.3l6.2,8.1L289.6,164.3z"/>
			<path class="st2" d="M248.4,112.2l41.2,52.1l-10.4,3l-6.2-8.1l-28.4,8.3l-0.8,10.2l-10.4,3l6.6-66.1L248.4,112.2z M267.7,152.2
				L248,126.5l-2.7,32.2L267.7,152.2z"/>
			<path d="M248,126.5l19.7,25.7l-22.4,6.6L248,126.5z M265.4,151.4l-16.3-21.3l-2.2,26.7L265.4,151.4z"/>
			<path d="M197.2,160.6l12.7,27.4c-4.7,5.5-10.8,9.6-17.9,12.8c-18.8,8.7-38,2.7-46.3-15.2c-8-17.2-1.1-36.2,17.7-44.8
				c6.6-3.1,13.1-4.5,19.3-4.2l0.7,11.2c-5.6-0.1-10.3,1-15.5,3.4c-10.9,5-15.8,16.5-10.1,28.8c5.8,12.5,18.7,15.6,29.8,10.4
				c2.5-1.2,5.1-2.7,6.7-4.2l-4.5-9.8l-11.8,5.5l-4.7-10.2L197.2,160.6z M208.3,187.8l-11.7-25.3l-21.3,9.9l3.6,7.7l11.8-5.5l5.6,12
				c-2.2,2.1-5.2,3.9-7.8,5.2c-11.8,5.5-25.5,2.2-31.6-11.1c-6-13-0.9-25.2,10.7-30.6c5-2.3,9.1-3.5,14.6-3.5l-0.5-8.6
				c-5.6-0.1-11.4,1.4-17.5,4.2c-18,8.3-24.7,26.5-17,43c8,17.2,26.5,22.9,44.5,14.5C198,196.6,203.7,192.8,208.3,187.8z"/>
			<path class="st2" d="M196.5,162.5l11.7,25.3c-4.5,5-10.3,8.8-16.8,11.8c-18,8.3-36.5,2.6-44.5-14.5c-7.6-16.5-1-34.7,17-43
				c6.1-2.8,11.9-4.3,17.5-4.2l0.5,8.6c-5.5,0-9.6,1.2-14.6,3.5c-11.7,5.4-16.8,17.6-10.7,30.6c6.1,13.2,19.8,16.5,31.6,11.1
				c2.7-1.2,5.7-3,7.8-5.2l-5.6-12l-11.8,5.5l-3.6-7.7L196.5,162.5z"/>
		</g>
		<g>
			<path class="st3" d="M183.5,147.8c-5.6-0.1-10.3,1-15.5,3.4c-10.9,5-15.8,16.5-10.1,28.8c5.8,12.5,18.7,15.6,29.8,10.4
				c2.5-1.2,5.1-2.7,6.7-4.2l-4.5-9.8l-11.8,5.5l-4.7-10.2l23.8-11l12.7,27.4c-4.7,5.5-10.8,9.6-17.9,12.8
				c-18.8,8.7-38,2.7-46.3-15.2c-8-17.2-1.1-36.2,17.7-44.8c6.6-3.1,13.1-4.5,19.3-4.2L183.5,147.8z"/>
			<path class="st3" d="M181.5,137.9c-5.6-0.1-11.4,1.4-17.5,4.2c-18,8.3-24.7,26.5-17,43c8,17.2,26.5,22.9,44.5,14.5
				c6.5-3,12.3-6.8,16.8-11.8l-11.7-25.3l-21.3,9.9l3.6,7.7l11.8-5.5l5.6,12c-2.2,2.1-5.2,3.9-7.8,5.2c-11.8,5.5-25.5,2.2-31.6-11.1
				c-6-13-0.9-25.2,10.7-30.6c5-2.3,9.1-3.5,14.6-3.5L181.5,137.9z"/>
			<polygon class="st3" points="272.5,160.8 245.9,168.6 245,178.8 231.8,182.7 238.7,113.7 248.9,110.6 292,165.1 278.7,169 			"/>
			<polygon class="st3" points="279.2,167.4 289.6,164.3 248.4,112.2 239.9,114.7 233.3,180.8 243.8,177.8 244.6,167.6 273,159.3 
							"/>
			<polygon class="st3" points="248,126.5 267.7,152.2 245.3,158.7 			"/>
			<polygon class="st3" points="246.8,156.9 265.4,151.4 249.1,130.1 			"/>
			<polygon class="st3" points="306.6,97.1 319.7,95.2 327.6,147.7 353.1,143.9 354.8,154.9 316.2,160.8 			"/>
			<polygon class="st3" points="317.3,159.2 353.2,153.8 352,145.4 326.4,149.3 318.5,96.7 308.2,98.3 			"/>
			<polygon class="st3" points="379.9,88.6 393.2,88.2 394.7,141.3 420.6,140.5 420.9,151.7 381.9,152.9 			"/>
			<polygon class="st3" points="383.2,151.4 419.5,150.4 419.2,141.9 393.4,142.7 391.8,89.6 381.4,89.9 			"/>
			<polygon class="st3" points="453.6,88.6 493,92 492,103.2 465.8,100.9 464.3,118.1 486.3,120 485.4,131.2 463.4,129.3 
				462.2,142.7 489.2,145 488.3,156.2 448.1,152.7 			"/>
			<polygon class="st3" points="449.6,151.4 487,154.7 487.7,146.3 460.7,143.9 462.1,127.8 484.1,129.7 484.8,121.3 462.9,119.4 
				464.6,99.4 490.8,101.7 491.5,93.3 454.9,90.1 			"/>
			<path class="st3" d="M549.4,146.6l15.9,23.8l-16.5-3.4L534.3,144l-3.9,19.1l-13-2.7l13-63l21.7,4.5c15.5,3.2,22.8,14.8,20.3,27.2
				C570.1,140.1,561.2,146.4,549.4,146.6z"/>
			<path class="st3" d="M551.8,103.2l-20.3-4.2L519,159.4l10.3,2.1l4.3-21.1l16,25.3l12.6,2.6l-15.5-23.2c13.1,1,22.2-6.4,24.3-16.3
				C573.4,117.2,566.5,106.3,551.8,103.2z"/>
			<path class="st3" d="M540.1,109.3l9.8,2c7.9,1.6,12.4,7.2,10.7,15.6c-1.8,8.5-8,11.8-17.8,9.7l-8-1.6L540.1,109.3z"/>
			<path class="st3" d="M536.4,133.9l6.7,1.4c8.9,1.8,14.6-1,16.1-8.7c1.5-7.6-2.5-12.5-9.6-14l-8.5-1.7L536.4,133.9z"/>
			<polygon class="st3" points="624.1,120.6 605.3,182.1 592.6,178.3 611.4,116.7 			"/>
			<polygon class="st3" points="612.3,118.5 594.3,177.3 604.4,180.4 622.3,121.5 			"/>
			<polygon class="st3" points="675.3,198.1 649.7,187.5 642.6,194.9 629.9,189.7 678.5,140.1 688.4,144.2 687.8,213.6 675.1,208.3 
							"/>
			<polygon class="st3" points="676.5,207.4 686.5,211.5 687,145.1 678.8,141.7 632.3,189.2 642.3,193.3 649.4,185.9 676.7,197.2 
							"/>
			<polygon class="st3" points="677.7,156 677,188.3 655.4,179.4 			"/>
			<polygon class="st3" points="657.8,178.9 675.6,186.3 676.3,159.5 			"/>
		</g>
	</g>
</g>
<circle class="st4" cx="64.2" cy="236.6" r="5.2"/>
<circle class="st4" cx="777.4" cy="227.8" r="5.2"/>
<path class="st5" d="M158.6,303.1c0-53.9,150.3-97.5,336.1-97.5"/>
<g>
	<path d="M211.2,281c-0.2,1.7-1.3,3.8-3.5,4.7c-3.1,1.2-6.6-0.3-8.1-3.9c-1.5-3.6-0.1-7.2,3-8.4c2.3-0.9,4.5-0.1,5.8,1l-0.5,0.2
		c-0.7-0.5-2.8-1.7-5.2-0.7c-2.8,1.2-4.1,4.5-2.7,7.8c1.4,3.3,4.6,4.8,7.5,3.7c2.5-1,3.1-3.5,3.2-4.1L211.2,281z"/>
	<path d="M215.4,282.4l-4.6-12.1l0.4-0.2l2.2,5.8l6-2.3l-2.2-5.8l0.4-0.2l4.6,12.1l-0.4,0.2l-2.2-5.9l-6,2.3l2.2,5.9L215.4,282.4z"
		/>
	<path d="M221.6,266.3l5.9-2.1l0.2,0.4l-5.5,2l1.9,5.4l5.5-2l0.2,0.4l-5.5,2l2,5.5l5.5-2l0.2,0.4l-5.9,2.1L221.6,266.3z"/>
	<path d="M231.2,262.8l6-2l0.2,0.4l-5.5,1.9l1.8,5.4l5.5-1.9l0.2,0.4l-5.5,1.9l1.9,5.5l5.5-1.9l0.2,0.4l-6,2L231.2,262.8z"/>
	<path d="M243.8,268.8c1,2.3,2.8,2.3,3.6,2c1.4-0.4,2.4-2,1.8-3.8c-0.7-2.3-2.6-2.2-3.8-2.1c-1,0-3.1,0.1-3.9-2.2
		c-0.7-2,0.4-3.7,2-4.2c1.3-0.4,2.9,0,3.7,2l-0.4,0.1c-0.5-0.9-1.4-2.2-3.2-1.6c-1.4,0.4-2.2,1.9-1.7,3.5c0.6,2,2.2,2,3.9,1.9
		c0.6,0,2.9-0.3,3.8,2.4c0.6,2-0.5,3.9-2.1,4.5c-1.3,0.4-3.3,0-4.2-2.3L243.8,268.8z"/>
	<path d="M250.3,256.7l6.1-1.8l0.1,0.5l-5.6,1.7l1.6,5.5l5.6-1.7l0.1,0.5l-5.6,1.7l1.7,5.5l5.6-1.7l0.1,0.5L254,269L250.3,256.7z"/>
	<path d="M268.8,256.5c0.7-0.2,1.5,0.3,1.7,1.1c0.2,0.8-0.2,1.6-0.9,1.8c-0.8,0.2-1.5-0.3-1.7-1.1
		C267.6,257.5,268,256.7,268.8,256.5L268.8,256.5z"/>
	<path d="M278.9,248.8l6.1-1.5l0.1,0.5l-5.7,1.4l1.3,5.5l5.7-1.4l0.1,0.5l-5.7,1.4l1.4,5.6l5.7-1.4l0.1,0.5l-6.1,1.5L278.9,248.8z"
		/>
	<path d="M304,256.5c-0.4,0-0.8,0-1.1,0c-1.1,0-1.6-0.3-2.5-0.6c-0.5,0.6-1.5,1.6-3.2,2c-3.6,0.8-6.6-1.8-7.3-5.3
		c-0.8-3.8,1.2-7.1,4.4-7.8s6.4,1.5,7.3,5.3c0.6,2.8-0.4,4.5-0.9,5.4c1,0.4,1.7,0.5,3.1,0.4L304,256.5z M294.5,245.4
		c-3,0.6-4.8,3.7-4.1,7.2c0.2,1.1,0.6,1.7,0.8,2c0.6-0.4,1.3-0.8,2.5-1.1c1.2-0.3,2.5-0.2,3.5,0.2c0.5,0.2,0.8,0.3,3.1,1.5
		c1-1.5,1.2-3.2,0.8-5C300.5,246.8,297.5,244.8,294.5,245.4L294.5,245.4z M297.2,257.5c1.4-0.3,2.4-1.2,2.8-1.8
		c-0.3-0.2-2.2-1.2-2.2-1.2c-1.4-0.6-2.7-0.8-4.1-0.5c-1.1,0.2-1.7,0.7-2.3,1.1C293.5,258,296.1,257.8,297.2,257.5L297.2,257.5z"/>
	<path d="M304.6,243.1l1.6,8.2c0.2,1.2,0.4,2,1.3,2.9c0.6,0.6,1.6,0.9,2.5,0.7c0.9-0.2,1.7-0.8,2.1-1.6c0.5-1.2,0.4-2,0.1-3.2
		l-1.6-8.2l0.5-0.1l1.6,8.2c0.2,1.1,0.5,2.9-0.6,4.2c-0.5,0.6-1.2,1-2,1.2c-0.8,0.1-1.6,0-2.2-0.4c-1.5-0.8-1.9-2.5-2.1-3.6
		l-1.6-8.2L304.6,243.1z"/>
	<path d="M315.1,241.1l0.5-0.1l2.3,12.7l-0.5,0.1L315.1,241.1z"/>
	<path d="M322,239.9c1.4-0.2,2.1-0.2,3,0.3c0.8,0.4,1.4,1.5,1.6,2.7c0.2,1.2-0.1,2.4-0.7,3c-0.6,0.7-1.4,1-2.7,1.2l-2.2,0.4l0.9,5.5
		l-0.5,0.1l-2.1-12.7L322,239.9z M320.9,247l2.2-0.4c1.3-0.2,1.9-0.5,2.5-1.1c0.5-0.5,0.7-1.6,0.5-2.6c-0.2-1-0.7-2-1.3-2.3
		c-0.7-0.4-1.4-0.5-2.7-0.3l-2.2,0.4L320.9,247z"/>
	<path d="M331,251.5l-1.8-12.8l0.7-0.1l7,11.2l3.6-12.7l0.7-0.1l1.8,12.8l-0.5,0.1l-1.7-12.3l-3.7,13l-0.3,0l-7.1-11.5l1.7,12.3
		L331,251.5z"/>
	<path d="M345.3,236.5l6.3-0.7l0.1,0.5l-5.8,0.7l0.7,5.7l5.8-0.7l0.1,0.5l-5.8,0.7l0.7,5.8l5.8-0.7l0.1,0.5l-6.3,0.7L345.3,236.5z"
		/>
	<path d="M365.3,246.7l-1.2-12.2l0.5,0l1.3,12.8l-0.6,0.1l-9.2-11.5l1.2,12.3l-0.5,0l-1.3-12.8l0.7-0.1L365.3,246.7z"/>
	<path d="M370.7,234.4l-3.1,0.2l0-0.5l6.7-0.5l0,0.5l-3.1,0.2l1,12.4l-0.5,0L370.7,234.4z"/>
	<path d="M385.2,237.9c0.7,0,1.4,0.6,1.4,1.4c0,0.8-0.5,1.5-1.3,1.6c-0.8,0-1.4-0.6-1.4-1.4C383.9,238.7,384.4,238,385.2,237.9
		L385.2,237.9z"/>
	<path d="M457.6,238.2c0.7,0,1.3,0.7,1.2,1.6c0,0.8-0.7,1.4-1.4,1.4c-0.8,0-1.3-0.7-1.3-1.6C456.2,238.7,456.8,238.1,457.6,238.2
		L457.6,238.2z"/>
	<path d="M468.7,233.9l0.5,0l2,12.4l4-11.9l0.3,0l1.9,12.4l4.1-11.9l0.5,0l-4.4,12.6l-0.6-0.1l-1.8-11.7l-3.8,11.2l-0.6-0.1
		L468.7,233.9z"/>
	<path d="M485.2,235.5l0.5,0l-1.3,12.8l-0.5,0L485.2,235.5z"/>
	<path d="M496.9,249.1l1.4-12.1l0.5,0.1l-1.5,12.8l-0.6-0.1l-6.5-13.2l-1.4,12.3l-0.5-0.1l1.5-12.8l0.7,0.1L496.9,249.1z"/>
	<path d="M502.8,237.5l6.3,0.8l-0.1,0.5l-5.8-0.8l-0.8,5.7l5.8,0.8l-0.1,0.5l-5.8-0.8l-0.8,5.7l5.8,0.8l-0.1,0.5l-6.3-0.8
		L502.8,237.5z"/>
	<path d="M519.8,244.9c0.7,0.1,1.2,0.9,1.1,1.7c-0.1,0.8-0.8,1.4-1.6,1.3c-0.8-0.1-1.3-0.9-1.1-1.7
		C518.3,245.3,519,244.8,519.8,244.9L519.8,244.9z"/>
	<path d="M540.6,253.7c-1,1.3-3.1,2.5-5.5,2.1c-3.2-0.6-5.4-3.8-4.7-7.6s3.8-6.1,7.1-5.5c2.4,0.5,3.8,2.4,4.4,4l-0.5-0.1
		c-0.3-0.7-1.5-2.9-4-3.4c-3-0.5-5.9,1.6-6.5,5.1c-0.6,3.5,1.3,6.5,4.3,7.1c2.6,0.5,4.5-1.3,4.9-1.7L540.6,253.7z"/>
	<path d="M543.3,257.1l2.5-12.7l0.5,0.1l-1.2,6.1l6.3,1.3l1.2-6.1l0.5,0.1l-2.5,12.7l-0.5-0.1l1.2-6.1L545,251l-1.2,6.1L543.3,257.1
		z"/>
	<path d="M553.8,259.2l-0.5-0.1l7.5-11.6l0.6,0.1l2.1,13.7l-0.5-0.1l-0.7-4.8l-5.9-1.3L553.8,259.2z M561.1,248.1l-4.3,6.7l5.5,1.2
		L561.1,248.1z"/>
	<path d="M569.1,249.3l2.6,0.6c1.7,0.4,2.4,0.7,2.9,1.2c0.8,0.7,1.2,2.3,0.8,3.7c-0.2,0.8-0.6,1.7-1.3,2.4c-1.1,1-2.1,1-3.4,0.7
		l1.9,5.4l-0.6-0.1l-2.1-6l0.3,0.1c0.8,0.2,2.2,0.5,3-0.1c0.9-0.7,1.3-1.5,1.6-2.5c0.3-1.1,0.1-2.4-0.7-3.2
		c-0.6-0.7-1.4-0.9-2.7-1.2l-2.1-0.5l-2.8,12.1l-0.5-0.1L569.1,249.3z"/>
	<path d="M587,264.1c-1.1,1.2-3.3,2.3-5.6,1.7c-3.2-0.8-5.1-4.2-4.2-7.9s4.2-5.8,7.4-5c2.4,0.6,3.7,2.6,4.1,4.2l-0.5-0.1
		c-0.3-0.8-1.2-3-3.7-3.6c-3-0.7-6,1.2-6.9,4.7c-0.9,3.5,0.9,6.6,3.8,7.4c2.6,0.7,4.5-1,5-1.4L587,264.1z"/>
	<path d="M593.3,255.3l-2.2,8.1c-0.3,1.2-0.5,2-0.1,3.2c0.3,0.8,1.1,1.5,2,1.8c0.8,0.2,1.9,0,2.5-0.5c1-0.8,1.2-1.6,1.5-2.8l2.2-8.1
		l0.5,0.1l-2.2,8.1c-0.3,1.1-0.8,2.8-2.4,3.5c-0.7,0.3-1.5,0.4-2.3,0.2c-0.8-0.2-1.4-0.7-1.9-1.3c-1-1.4-0.6-3.1-0.3-4.2l2.2-8.1
		L593.3,255.3z"/>
	<path d="M605.4,259.1l-3-0.9l0.1-0.5l6.5,1.8l-0.1,0.5l-3-0.9l-3.4,12l-0.5-0.1L605.4,259.1z"/>
	<path d="M611.8,260.5l6.1,1.8l-0.1,0.5l-5.6-1.7l-1.6,5.5l5.6,1.7l-0.1,0.5l-5.6-1.7l-1.7,5.6l5.6,1.7l-0.1,0.5l-6.1-1.8
		L611.8,260.5z"/>
	<path d="M621.4,263.4l2.5,0.8c1.7,0.5,2.3,0.9,2.8,1.4c0.7,0.8,1,2.3,0.6,3.8c-0.2,0.8-0.7,1.7-1.5,2.3c-1.2,0.9-2.1,0.8-3.4,0.4
		l1.5,5.6l-0.6-0.2l-1.6-6.1l0.3,0.1c0.8,0.3,2.1,0.7,3.1,0.1c1-0.6,1.5-1.4,1.8-2.3c0.3-1.1,0.2-2.4-0.4-3.3
		c-0.5-0.7-1.3-1-2.6-1.4l-2.1-0.6l-3.7,11.9l-0.4-0.1L621.4,263.4z"/>
	<path d="M631.4,266.5l0.4,0.1l-4,12.3l-0.4-0.1L631.4,266.5z"/>
	<path d="M635.7,267.9l6,2l-0.2,0.4l-5.5-1.9l-1.8,5.4l5.5,1.9l-0.2,0.4l-5.5-1.9l-1.9,5.5l5.5,1.9l-0.2,0.4l-6-2L635.7,267.9z"/>
</g>
<rect x="394.6" y="218.1" class="st5" width="55.4" height="54.4"/>
<text transform="matrix(1 0 0 1 405.6213 246.0894)" class="st6 st7 st8">Q</text>
</svg>
