<?xml version="1.0" encoding="utf-8"?>
<!-- Generator: Adobe Illustrator 19.1.0, SVG Export Plug-In . SVG Version: 6.00 Build 0)  -->
<svg version="1.1" id="Layer_1" xmlns="http://www.w3.org/2000/svg" xmlns:xlink="http://www.w3.org/1999/xlink" x="0px" y="0px"
	 viewBox="0 143.7 841.9 308.6" style="enable-background:new 0 143.7 841.9 308.6;" xml:space="preserve">
<style type="text/css">
	.st0{fill:none;stroke:#FFFFFF;stroke-width:1.25;stroke-miterlimit:10;}
	.st1{opacity:0.67;}
	.st2{fill:#FFB000;}
	.st3{fill:none;stroke:#E1AA25;stroke-miterlimit:10;}
	.st4{fill:#FFFFFF;}
	.st5{fill:none;stroke:#000000;stroke-width:0.75;stroke-miterlimit:10;}
	.st6{fill:none;}
	.st7{fill:none;stroke:#FFFFFF;stroke-miterlimit:10;}
	.st8{enable-background:new    ;}
</style>
<g id="Layer_1_1_">
	<g id="Layer_2">
	</g>
</g>
<g id="Layer_2_1_">
	<g id="Layer_1_2_">
		<path class="st0" d="M52.5,307.1L39,279.2c0,0,335.2-244.2,759.3-7.1c-7.2,10.3-16.8,25.6-16.8,25.6s74.5,97.5-44.5,88.6
			c-4.8,12.8-15.6,30.8-15.6,30.8s-299.7-194.9-599.5,7.6l-18-29.5C103.9,395.2-9.7,413.8,52.5,307.1z"/>
		<g class="st1">
			<path class="st2" d="M164,298.2l-10.7-1.9l-0.2-1.9l10.8,2C163.9,297,164,297.6,164,298.2z M163.9,294.4l-10.8-1.9
				c0-0.6,0-1.2,0.2-1.8l10.6,1.9C163.9,293.2,163.9,293.8,163.9,294.4z M154.1,287.1l10.7,1.9c-0.2,0.6-0.4,1.2-0.5,1.8l-10.7-1.9
				L154.1,287.1z M165,302.1l-10.6-1.9c-0.3-0.6-0.5-1.4-0.6-2l10.7,1.9C164.6,300.8,164.8,301.5,165,302.1z M165.7,287.2l-10.8-1.9
				c0.3-0.6,0.7-1.2,1-1.7l10.7,1.8C166.1,286.1,166,286.8,165.7,287.2z M156.1,304.2c-0.4-0.6-0.7-1.3-1-2l10.7,1.8l1,2.1
				L156.1,304.2z M167.6,283.9l-10.7-1.9l1.4-1.6l10.7,1.9C168.5,282.9,168,283.3,167.6,283.9z M157.4,306.4l10.6,1.8
				c0.5,0.8,1,1.5,1.5,2.1l-10.4-1.9C158.4,307.8,157.8,307.1,157.4,306.4z M170.7,280.7l-10.6-1.9c0.6-0.6,1.2-1.1,1.9-1.5
				l10.7,1.8C172,279.7,171.4,280.2,170.7,280.7z M161.5,310.8l10.2,1.8c1,0.9,2,1.6,3.1,2.2h-1.2l-7.4-1.3
				C164.6,312.9,162.9,312,161.5,310.8z M175.3,277.8l-10.5-1.9c1-0.5,2-0.9,3.2-1.3l10.4,1.9L175.3,277.8z M181.9,275.3l-10.1-1.8
				c1.9-0.4,3.9-0.6,5.9-0.8l8.8,1.6C184.9,274.5,183.3,274.9,181.9,275.3z M172.5,329.4c2,0.1,4.1-0.1,6.3-0.5l10.1,1.8
				c-3.8,0.6-7.2,0.6-10.5-0.1L172.5,329.4z M181.8,303.3l4.8,0.8l1,2.1l-8.7-1.5L181.8,303.3z M180.5,261.9l10.7,1.9l0.1,1.9
				l-10.7-1.9L180.5,261.9z M180.7,265.7l10.7,1.9l0.1,2l-10.7-2L180.7,265.7z M181,269.5l10.7,1.9l0.1,1.9l-10.7-1.9L181,269.5z
				 M193.5,329.7l-10.4-1.9c1.2-0.3,2.2-0.7,3.5-1.3l10.5,1.9L193.5,329.7z M185.7,302.1l-0.9-0.2l0.7-0.3L185.7,302.1z
				 M200.1,327.1l-10.5-1.9c0.8-0.4,1.8-0.8,2.7-1.4l10.5,1.9L200.1,327.1z M205.4,324.3l-10.6-1.9c0.8-0.4,1.6-0.9,2.4-1.5
				l10.6,1.9L205.4,324.3z M205.8,286.3l0.3,0.8l-10.7-1.9l-0.3-0.8L205.8,286.3z M196.4,287.2l10.7,1.9l0.9,2l-10.7-1.9
				L196.4,287.2z M198.3,291.3l10.7,1.8l1,2.1l-10.7-1.9L198.3,291.3z M209.9,321.4l-10.6-1.8l2-1.6l10.6,2
				C211.3,320.4,210.6,320.9,209.9,321.4z M200.2,295.4l10.7,1.8l1,2.1l-10.7-1.9L200.2,295.4z M202.1,299.4l10.7,1.9l0.9,2
				l-10.7-1.8L202.1,299.4z M213.8,318.3l-10.6-1.9l1.7-1.6l10.7,2L213.8,318.3z M203.9,303.5l10.7,1.9l0.9,2l-10.7-1.8L203.9,303.5
				z M205.8,307.5l10.7,1.9l1,2.1l-10.8-2L205.8,307.5z M217.1,315.2l-10.7-1.9l1.4-1.6l-0.2-0.3l10.8,2.1l0.1,0.3L217.1,315.2z"/>
			<path class="st2" d="M232.6,306.2l10.2,3.4l-3,0.9l-10.2-3.4L232.6,306.2z M238.8,304.4l10.2,3.4l-3.1,0.9l-10.2-3.4L238.8,304.4
				z M242.6,301.8l10.4,3.5l-0.1,1.4l-0.7,0.2l-10.3-3.4l0.6-0.2L242.6,301.8z M242.9,298l10.4,3.5l-0.1,2l-10.4-3.6L242.9,298z
				 M243.2,294.3l10.4,3.5l-0.2,1.9l-10.4-3.5L243.2,294.3z M247.7,291.8l10.2,3.4l-3.1,0.9l-10.2-3.4L247.7,291.8z M244.8,275.3
				l4.6,1.6l-3.1,0.9l-1.6-0.7L244.8,275.3z M252.5,276.1l-7.5-2.6l0.1-1.9l10.3,3.3v0.2L252.5,276.1z M245.4,267.9l10.3,3.4
				l-0.2,1.9l-10.3-3.5L245.4,267.9z M245.7,264.1l7.8,2.6l2,2.7l-9.9-3.4L245.7,264.1z M249.6,261.5l1.9,2.5l-5.6-1.8l0.1-1.9
				L249.6,261.5z M246.3,257.2l1.3,1.7l-1.4-0.5L246.3,257.2z M257.5,238.2l0.8,1l-10.2-3.5l-0.8-0.9L257.5,238.2z M250.2,238.4
				l10.2,3.4l2.1,2.7l-10.2-3.5L250.2,238.4z M253.7,290.1l10.2,3.4l-3,0.9l-10.3-3.4L253.7,290.1z M254.4,243.7l10.2,3.5l2.1,2.6
				l-10.2-3.5L254.4,243.7z M259.9,288.3l10.2,3.4l-3,0.9l-10.3-3.4L259.9,288.3z M258.6,249l10.1,3.4l2.1,2.7l-10.2-3.5L258.6,249z
				 M262.8,254.4l10.2,3.4l2.1,2.7l-10.2-3.5L262.8,254.4z M266.1,286.4l3.5,1.2l2,2.7l-8.6-2.9L266.1,286.4z M267,259.6l10.1,3.5
				l2.1,2.7l-10.2-3.5L267,259.6z M271.2,264.9l10.2,3.4l2.1,2.6l-10.2-3.4L271.2,264.9z M275.3,270.2l10.2,3.5l2.1,2.6l-10.2-3.4
				L275.3,270.2z M281.8,291.8l10.1,3.5l-3,0.9l-10.1-3.5L281.8,291.8z M279.6,275.5l10.1,3.5l2.1,2.6l-10.2-3.4L279.6,275.5z
				 M283.7,280.7l10.1,3.5l2.2,2.6l-10.2-3.4L283.7,280.7z M288,290l10.2,3.4l-3.2,0.9l-10.1-3.5L288,290z M288,286.1l10.1,3.5
				l2.1,2.7l-10.1-3.5L288,286.1z"/>
			<path class="st2" d="M317.5,284.8l9.5,4.8l-3.1,0.5l-9.6-4.8L317.5,284.8z M327.4,226.1l-9.7-4.9l-0.3-1.9l9.7,4.9L327.4,226.1z
				 M318,223.5l9.7,4.9l0.3,2.2l-9.7-4.8L318,223.5z M318.7,227.9l9.7,4.9l0.3,2.2l-9.7-4.8L318.7,227.9z M319.4,232.4l9.7,4.9
				l0.3,2.2l-9.7-4.9L319.4,232.4z M320,236.8l9.7,4.8l0.3,2.3l-9.7-4.9L320,236.8z M323.8,283.8l9.6,4.8l-3.1,0.5l-9.6-4.8
				L323.8,283.8z M320.7,241.3l9.7,4.8l0.3,2.3l-9.7-4.9L320.7,241.3z M321.4,245.6l9.7,4.9l0.3,2.3l-9.7-4.9L321.4,245.6z
				 M322,250.1l9.7,4.9l0.3,2.2l-9.7-4.8L322,250.1z M322.7,254.5l9.7,4.9l0.3,2.2l-9.7-4.9L322.7,254.5z M323.4,259l9.7,4.9
				l0.3,2.2l-9.7-4.9L323.4,259z M330.6,268.7l-6.2-3.1l-0.3-2.2l9.7,4.8L330.6,268.7z M324.7,267.8l2.6,1.4l-2.4,0.4L324.7,267.8z
				 M330.1,282.9l9.6,4.8l-3.2,0.5l-9.6-4.8L330.1,282.9z M336.5,281.9l9.5,4.8l-3,0.5l-9.6-4.8L336.5,281.9z M342.9,281l9.6,4.8
				l-3.2,0.5l-9.6-4.8L342.9,281z M349.2,280l9.5,4.8l-3.2,0.5l-9.5-4.8L349.2,280z M350.9,268.5l9.7,4.9l0.3,2.3l-9.7-4.9
				L350.9,268.5z M351.6,273l9.7,4.9l0.3,2.3l-9.8-4.9L351.6,273z M362,284.3l-9.6-4.8h0.2l-0.3-2.1l9.7,4.9l0.3,2H362z"/>
			<path class="st2" d="M383.1,277.5l8.9,5.9l-3.1,0.1l-9-5.9L383.1,277.5z M389.4,277.3l9,5.9l-3.1,0.1l-9-5.9L389.4,277.3z
				 M399.9,220.4l-9.1-6l-0.1-1.9l9.1,6L399.9,220.4z M390.9,216.7l9.1,6l0.1,2.2L391,219L390.9,216.7z M391,221.2l9.1,6l0.1,2.2
				l-9.1-5.9L391,221.2z M391.2,225.7l9.1,6l0.1,2.2l-9.1-6L391.2,225.7z M391.3,230.2l9.1,5.9l0.1,2.3l-9.1-6L391.3,230.2z
				 M391.4,234.7l9.1,5.9l0.1,2.3l-9.1-6L391.4,234.7z M391.6,239.1l9.1,6l0.1,2.3l-9.1-6L391.6,239.1z M391.7,243.6l9.1,6l0.1,2.2
				l-9.1-5.9L391.7,243.6z M391.8,248.1l9.1,6l0.1,2.2l-9.1-6L391.8,248.1z M392,252.6l9.1,6l0.1,2.2l-9.1-6L392,252.6z M398,263.1
				l-5.8-3.8l-0.1-2.2l9.1,5.9L398,263.1z M392.2,261.5l2.4,1.7l-2.4,0.1V261.5z M395.8,277.1l9,5.9l-3.2,0.1l-9-5.9L395.8,277.1z
				 M402.3,276.9l8.9,5.9l-3.1,0.1l-9-5.9L402.3,276.9z M408.7,276.7l9,5.9l-3.2,0.1l-9-5.9L408.7,276.7z M415.1,276.5l8.9,5.9
				l-3.2,0.1l-8.9-5.9L415.1,276.5z M418.2,265.3l9.1,6l0.1,2.3l-9.1-6L418.2,265.3z M418.3,269.8l9.1,6l0.1,2.3l-9.1-6.1
				L418.3,269.8z M427.3,282.3l-9-5.9h0.2l-0.1-2.1l9.1,6l0.1,2H427.3z"/>
			<path class="st2" d="M449.1,277.9l8.2,6.9l-3.1-0.3l-8.3-6.9L449.1,277.9z M455.4,278.4l8.3,6.9l-3.1-0.3l-8.3-6.9L455.4,278.4z
				 M461.8,279l8.3,6.9l-3.2-0.3l-8.3-6.9L461.8,279z M460.1,263.1l2.2,1.9l-2.4-0.2L460.1,263.1z M465.6,265.3l-5.3-4.4l0.2-2.2
				l8.3,6.9L465.6,265.3z M469.2,261.2l-0.2,2.2l-8.3-7l0.2-2.2L469.2,261.2z M462.4,236.3l5.4,4.4l-3.3-0.3l-2.3-2L462.4,236.3z
				 M470.9,241.1l-8.3-7l0.2-2.2l8.3,6.9L470.9,241.1z M463.2,227.4l8.3,7l-0.2,2.2l-8.3-7L463.2,227.4z M467.2,254.8l8.3,6.9
				l-3.3-0.3l-8.3-6.9L467.2,254.8z M467.4,226.2l8.3,6.9l-3.2-0.3l-8.3-6.9L467.4,226.2z M468.1,279.6l8.3,6.9l-3.1-0.3l-8.3-6.9
				L468.1,279.6z M473.6,255.3l8.3,6.9l-3.2-0.3l-8.3-6.9L473.6,255.3z M473.8,226.7l8.3,6.9l-3.3-0.3l-8.2-6.9L473.8,226.7z
				 M474.6,280.1l8.2,6.9l-3.1-0.3l-8.3-6.9L474.6,280.1z M480,255.9l8.3,6.9l-3.1-0.3l-8.3-6.9L480,255.9z M480.2,227.3l8.3,6.9
				l-3.2-0.3L477,227L480.2,227.3z M481,280.7l8.2,6.9l-3.2-0.3l-8.3-6.9L481,280.7z M483,253.5l8.3,7l-0.2,2.2l-8.3-7L483,253.5z
				 M483.4,249.1l8.3,7.1l-0.2,2.2l-8.3-7L483.4,249.1z M486.5,227.8l8.3,6.9l-3.2-0.3l-8.3-6.9L486.5,227.8z M483.8,244.6l8.3,7
				l-0.2,2.3l-8.3-7L483.8,244.6z M492.4,287.8l-8.2-6.9l1.5,0.1l0.1-1.2l8.3,7l-0.1,1.1L492.4,287.8z M486.2,275.4l8.3,7l-0.2,2.2
				l-8.3-7L486.2,275.4z M486.6,271l8.3,6.9l-0.2,2.3l-8.3-7L486.6,271z M489.7,225.4l8.3,7.1l-0.2,2.3l-8.3-7.1L489.7,225.4z
				 M490.1,221l8.3,7l-0.2,2.3l-8.3-7.1L490.1,221z M490.5,216.5l8.3,7l-0.2,2.3l-8.3-7.1L490.5,216.5z"/>
			<path class="st2" d="M515,285.6l3.2,0.6l7.3,7.8l-3.1-0.6L515,285.6z M524.5,287.5l7.3,7.8l-3.1-0.6l-7.4-7.8L524.5,287.5z
				 M528.1,286l7.5,7.9l-0.4,2.1l-0.3-0.1l-7.2-7.7L528.1,286z M529,281.6l7.5,7.9l-0.4,2.2l-7.5-7.8L529,281.6z M529.9,277.2
				l7.5,7.9l-0.4,2.2l-7.5-7.8L529.9,277.2z M538.1,281.7l-0.2,1.2l-7.5-7.9l0.4-2.2l4.7,4.9L538.1,281.7z M534.4,255.2l1.4,1.4
				l-1.6-0.3L534.4,255.2z M538.9,257.2l-4-4.3l0.4-2.2l6.6,7.1L538.9,257.2z M536.2,246.5l7.5,7.8l-0.5,2.3l-7.5-8L536.2,246.5z
				 M537.1,242l7.5,7.8l-0.5,2.3l-7.5-7.9L537.1,242z M538,237.6l7.5,7.9l-0.4,2.2l-7.5-7.9L538,237.6z M542.4,236.7l7.3,7.8
				l-3.2-0.6l-7.3-7.8L542.4,236.7z M553.3,245.3l-0.5-0.1l-7.3-7.8h0.2c1.3,0.3,2.3,0.7,3.4,1.2l4.6,4.7c0.3,0.8,0.5,1.6,0.6,2.2
				C554,245.4,553.6,245.3,553.3,245.3z M547.1,292.1l2.5,0.5l7.4,7.8l-2.5-0.5L547.1,292.1z M549.5,271l7.5,7.8l-1.6,0.2l2.1,3.1
				l-6.8-7.2l-2.5-3.7L549.5,271z M553.7,270.2l7.3,7.8c-0.7,0.2-1.4,0.4-2.1,0.5l-7.3-7.8C552.3,270.6,553,270.4,553.7,270.2z
				 M555.8,293.9l7.5,7.8l-3.2-0.6l-7.5-7.8L555.8,293.9z M557.4,268.7l7.4,7.9c-0.6,0.3-1.3,0.5-1.8,0.8l-7.4-7.8
				C556.2,269.3,556.7,269.1,557.4,268.7z M569.4,300.3l-6.5-6.9l-6.2-9.2l6.7,7.1L569.4,300.3z M562.1,295.2l7.4,7.8l-3.2-0.6
				l-7.4-7.8L562.1,295.2z M560.6,266.9l7.4,7.9c-0.5,0.4-1.2,0.7-1.7,1l-7.4-7.9C559.6,267.6,560.1,267.3,560.6,266.9z
				 M563.5,264.6l7.4,7.9c-0.5,0.5-0.8,0.8-1.4,1.2l-7.5-7.9C562.5,265.5,563,265.1,563.5,264.6z M566,261.8l7.5,7.9
				c-0.5,0.6-0.9,1-1.2,1.4l-7.5-7.9C565.1,262.9,565.6,262.3,566,261.8z M568,258.5l7.5,7.9c-0.3,0.7-0.6,1.2-1,1.7l-7.5-7.9
				C567.4,259.6,567.7,259.1,568,258.5z M572.1,242.3c2.3,2.4,3.7,4.5,4.7,6.9l-7.1-7.6c-0.3-1.1-0.9-2.2-1.4-3.3L572.1,242.3z
				 M569.4,254.7l7.5,8c-0.2,0.7-0.4,1.4-0.7,1.9l-7.4-8C569,256.1,569.3,255.3,569.4,254.7z M570.3,250.3l7.5,7.9
				c-0.1,0.7-0.2,1.6-0.3,2.4l-7.5-8C570.1,251.8,570.2,251.1,570.3,250.3z M570.4,245l7.4,7.8c0.1,1,0.2,1.8,0.2,2.8l-7.4-7.8
				C570.5,246.9,570.5,246,570.4,245z"/>
			<path class="st2" d="M593.2,304.4l6.6,8.4l-3-0.9l-6.6-8.5L593.2,304.4z M599.3,306.3l6.6,8.5l-3.1-0.9l-6.6-8.5L599.3,306.3z
				 M608.9,315.7l-6.5-8.4l0.6-2.1l6.7,8.6l-0.6,2L608.9,315.7z M604.4,300.8l6.7,8.6l-0.6,2.1l-6.7-8.6L604.4,300.8z M605.7,296.5
				l6.7,8.6l-0.6,2.1l-6.7-8.5L605.7,296.5z M607,292.2l6.7,8.6l-0.6,2.1l-6.7-8.5L607,292.2z M608.3,288l6.7,8.5l-0.7,2.2l-6.7-8.6
				L608.3,288z M609.6,283.7l6.7,8.5l-0.7,2.2l-6.7-8.6L609.6,283.7z M610.9,279.4l6.7,8.6l-0.6,2.1l-6.7-8.6L610.9,279.4z
				 M612.2,275.1l6.7,8.6l-0.6,2.1l-6.7-8.6L612.2,275.1z M613.5,270.8l6.7,8.6l-0.6,2.1l-6.7-8.5L613.5,270.8z M614.8,266.4
				l6.7,8.6l-0.7,2.2l-6.7-8.6L614.8,266.4z M616.1,262.2l6.7,8.5l-0.7,2.2l-6.7-8.6L616.1,262.2z M617.4,257.9l6.7,8.5l-0.7,2.2
				l-6.7-8.6L617.4,257.9z M618.8,253.6l6.7,8.6l-0.6,2.1l-6.7-8.6L618.8,253.6z M620.1,249.3l6.7,8.6l-0.6,2.1l-6.7-8.5
				L620.1,249.3z M628,253.9l-0.5,1.8l-6.7-8.5l0.6-1.8L628,253.9z"/>
			<path class="st2" d="M629.6,316l5.8,9.1l-2.9-1.2l-5.8-9.1L629.6,316z M635.5,318.4l5.8,9.1l-3-1.2l-5.8-9.1L635.5,318.4z
				 M640.1,318.9l5.9,9.2l-1,1l-0.7-0.3l-5.9-9.1l0.6,0.2L640.1,318.9z M642.7,316l5.9,9.2l-1.3,1.4l-5.9-9.3L642.7,316z
				 M645.3,313.3l5.9,9.2l-1.3,1.4l-5.9-9.2L645.3,313.3z M650.3,314.2l5.8,9.1l-3-1.2l-5.8-9.1L650.3,314.2z M656.1,316.6l5.8,9.1
				l-2.9-1.2l-5.9-9.1L656.1,316.6z M658.4,299.6l2.6,4.1l-3-1.2l-0.9-1.5L658.4,299.6z M662.1,319.1l5.8,9.1L665,327l-5.9-9.1
				L662.1,319.1z M664,304.9l-4.2-6.7l1.3-1.4l6,9.1l-0.2,0.2L664,304.9z M663.5,294.1l5.9,9.1l-1.3,1.4l-5.8-9.2L663.5,294.1z
				 M666.2,291.3l4.4,6.9l-0.1,3.3l-5.6-8.9L666.2,291.3z M668,321.5l2,3.1l-0.1,3.3l-4.9-7.7L668,321.5z M670.8,291.7l-0.1,3.1
				l-3.2-4.9l1.3-1.4L670.8,291.7z M670.9,286.3v2.2l-0.8-1.3L670.9,286.3z M677,335.6l5.7,9l-2.9-1.2l-5.7-9L677,335.6z M682.9,338
				l5.8,9.1l-3.1-1.3l-5.7-9L682.9,338z M685.3,334.9l5.7,9v3.4l-5.7-9V334.9z M685.4,328.1l5.7,9.1v3.4l-5.8-9L685.4,328.1z
				 M685.4,321.4l5.7,9v3.4l-5.8-9L685.4,321.4z M685.4,314.6l5.8,9.1v3.4l-5.8-9V314.6z M685.5,307.9l5.8,9v3.4l-5.8-9V307.9z
				 M685.6,301.1l5.7,9v3.5l-5.7-9.1V301.1z M685.6,294.5l5.8,9.1v3.4l-5.8-9.1V294.5z M685.6,287.7l5.8,9v3.5l-5.8-9.1V287.7z
				 M685.7,280.9l5.8,9.1v3.4l-5.8-9.1V280.9z M685.7,274.1l5.8,9.1v3.4l-5.8-9.1V274.1z M691.5,278.5v1.2l-5.8-9.1v-1.2
				L691.5,278.5z"/>
		</g>
		<path class="st3" d="M61.8,309.6l-13.2-27.7c0,0,323.9-230.5,738.3-6.6c-7,9.5-12.8,23.8-12.8,23.8s73.6,93.2-39.8,79.5
			c-4.7,11.8-15.3,28.3-15.3,28.3S425.7,219.7,124.2,414l-17.6-27.1C106.6,386.9-1.8,402.7,61.8,309.6z"/>
		<g>
			<g id="XMLID_1_">
				<g>
					<path d="M686.4,269.4l-0.5,69.4l-12.8-5.3l0.3-10.3l-25.7-10.6l-7,7.4l-12.7-5.3l48.6-49.6L686.4,269.4z M684.5,336.7l0.5-66.4
						l-8.2-3.4l-46.5,47.4l10,4.1l7-7.4l27.4,11.3l-0.3,10.2L684.5,336.7z"/>
					<path class="st4" d="M685,270.3l-0.5,66.4l-10-4.1l0.3-10.2l-27.4-11.3l-7,7.4l-10-4.1l46.5-47.4L685,270.3z M675,313.5
						l0.7-32.3l-22.3,23.4L675,313.5z"/>
					<path d="M675.7,281.2l-0.7,32.3l-21.6-8.9L675.7,281.2z M673.6,311.5l0.6-26.8l-18.5,19.4L673.6,311.5z"/>
					<path d="M622.1,245.8l-18.8,61.5l-12.7-3.9l18.8-61.5L622.1,245.8z M602.4,305.6l18-58.9l-10-3.1l-18,58.9L602.4,305.6z"/>
					<polygon class="st4" points="620.3,246.7 602.4,305.6 592.3,302.5 610.3,243.7 					"/>
					<path d="M550.1,227.1c15.5,3.2,22.8,14.8,20.3,27.2c-2.3,11-11.2,17.3-23,17.5l15.9,23.8l-16.5-3.4l-14.5-23l-3.9,19.1l-13-2.7
						l13-63L550.1,227.1z M569.1,254c2.4-11.6-4.6-22.5-19.2-25.6l-20.3-4.2L517,284.6l10.3,2.1l4.3-21.1l16,25.3l12.6,2.6
						l-15.5-23.2C557.9,271.3,567,263.9,569.1,254z"/>
					<path class="st4" d="M549.8,228.4c14.7,3,21.6,13.9,19.2,25.6c-2.1,9.9-11.2,17.3-24.3,16.3l15.5,23.2l-12.6-2.6l-16-25.3
						l-4.3,21.1l-10.3-2.1l12.4-60.3L549.8,228.4z M558.5,252.1c1.7-8.5-2.8-14-10.7-15.6l-9.8-2l-5.3,25.8l8,1.6
						C550.6,263.9,556.8,260.7,558.5,252.1z"/>
					<path d="M547.9,236.5c7.9,1.6,12.4,7.2,10.7,15.6c-1.8,8.5-8,11.8-17.8,9.7l-8-1.6l5.3-25.8L547.9,236.5z M557.2,251.8
						c1.5-7.6-2.5-12.5-9.6-14l-8.5-1.7l-4.8,23l6.7,1.4C550,262.4,555.6,259.5,557.2,251.8z"/>
					<path d="M491,217.2l-1,11.2l-26.2-2.3l-1.5,17.2l22,1.9l-1,11.2l-22-1.9l-1.2,13.4l27,2.3l-1,11.2l-40.2-3.5l5.5-64.1
						L491,217.2z M488.8,226.9l0.7-8.4l-36.6-3.2l-5.3,61.4l37.5,3.2l0.7-8.4l-27-2.3l1.4-16.1l22,1.9l0.7-8.4l-22-1.9l1.7-20
						L488.8,226.9z"/>
					<polygon class="st4" points="489.5,218.5 488.8,226.9 462.6,224.6 460.9,244.6 482.8,246.5 482.1,254.9 460.1,253 458.7,269.1 
						485.7,271.5 485,279.9 447.6,276.6 452.9,215.3 					"/>
					<path d="M418.6,265.7l0.3,11.2l-39,1.2l-1.9-64.3l13.2-0.4l1.6,53.1L418.6,265.7z M417.5,275.6l-0.3-8.5l-25.8,0.8l-1.6-53.1
						l-10.5,0.3l1.8,61.5L417.5,275.6z"/>
					<polygon class="st4" points="417.2,267.1 417.5,275.6 381.2,276.6 379.4,215.1 389.8,214.8 391.4,267.9 					"/>
					<path d="M351.1,269.1l1.7,11.1l-38.6,5.8l-9.6-63.6l13.1-2l7.9,52.5L351.1,269.1z M351.2,279l-1.3-8.4l-25.6,3.8l-7.9-52.5
						l-10.4,1.5l9.2,60.9L351.2,279z"/>
					<polygon class="st4" points="350,270.6 351.2,279 315.3,284.4 306.2,223.5 316.5,221.9 324.4,274.5 					"/>
					<path d="M246.9,235.8l43.1,54.4l-13.2,3.9l-6.2-8.1l-26.6,7.8l-0.8,10.2l-13.2,3.9l6.9-69.1L246.9,235.8z M287.6,289.5
						l-41.2-52.1l-8.5,2.5l-6.6,66.1l10.4-3l0.8-10.2l28.4-8.3l6.2,8.1L287.6,289.5z"/>
					<path class="st4" d="M246.4,237.4l41.2,52.1l-10.4,3l-6.2-8.1l-28.4,8.3l-0.8,10.2l-10.4,3l6.6-66.1L246.4,237.4z M265.7,277.4
						L246,251.7l-2.7,32.2L265.7,277.4z"/>
					<path d="M246,251.7l19.7,25.7l-22.4,6.6L246,251.7z M263.4,276.6l-16.3-21.3l-2.2,26.7L263.4,276.6z"/>
					<path d="M195.2,285.8l12.7,27.4c-4.7,5.5-10.8,9.6-17.9,12.8c-18.8,8.7-38,2.7-46.3-15.2c-8-17.2-1.1-36.2,17.7-44.8
						c6.6-3.1,13.1-4.5,19.3-4.2l0.7,11.2c-5.6-0.1-10.3,1-15.5,3.4c-10.9,5-15.8,16.5-10.1,28.8c5.8,12.5,18.7,15.6,29.8,10.4
						c2.5-1.2,5.1-2.7,6.7-4.2l-4.5-9.8l-11.8,5.5l-4.7-10.2L195.2,285.8z M206.3,313l-11.7-25.3l-21.3,9.9l3.6,7.7l11.8-5.5l5.6,12
						c-2.2,2.1-5.2,3.9-7.8,5.2c-11.8,5.5-25.5,2.2-31.6-11.1c-6-13-0.9-25.2,10.7-30.6c5-2.3,9.1-3.5,14.6-3.5l-0.5-8.6
						c-5.6-0.1-11.4,1.4-17.5,4.2c-18,8.3-24.7,26.5-17,43c8,17.2,26.5,22.9,44.5,14.5C196,321.8,201.7,318,206.3,313z"/>
					<path class="st4" d="M194.5,287.7l11.7,25.3c-4.5,5-10.3,8.8-16.8,11.8c-18,8.3-36.5,2.6-44.5-14.5c-7.6-16.5-1-34.7,17-43
						c6.1-2.8,11.9-4.3,17.5-4.2l0.5,8.6c-5.5,0-9.6,1.2-14.6,3.5c-11.7,5.4-16.8,17.6-10.7,30.6c6.1,13.2,19.8,16.5,31.6,11.1
						c2.7-1.2,5.7-3,7.8-5.2l-5.6-12l-11.8,5.5l-3.6-7.7L194.5,287.7z"/>
				</g>
				<g>
					<path class="st5" d="M181.5,273c-5.6-0.1-10.3,1-15.5,3.4c-10.9,5-15.8,16.5-10.1,28.8c5.8,12.5,18.7,15.6,29.8,10.4
						c2.5-1.2,5.1-2.7,6.7-4.2l-4.5-9.8l-11.8,5.5l-4.7-10.2l23.8-11l12.7,27.4c-4.7,5.5-10.8,9.6-17.9,12.8
						c-18.8,8.7-38,2.7-46.3-15.2c-8-17.2-1.1-36.2,17.7-44.8c6.6-3.1,13.1-4.5,19.3-4.2L181.5,273z"/>
					<path class="st5" d="M179.5,263.1c-5.6-0.1-11.4,1.4-17.5,4.2c-18,8.3-24.7,26.5-17,43c8,17.2,26.5,22.9,44.5,14.5
						c6.5-3,12.3-6.8,16.8-11.8l-11.7-25.3l-21.3,9.9l3.6,7.7l11.8-5.5l5.6,12c-2.2,2.1-5.2,3.9-7.8,5.2
						c-11.8,5.5-25.5,2.2-31.6-11.1c-6-13-0.9-25.2,10.7-30.6c5-2.3,9.1-3.5,14.6-3.5L179.5,263.1z"/>
					<polygon class="st5" points="270.5,286 243.9,293.8 243,304 229.8,307.9 236.7,238.9 246.9,235.8 290,290.3 276.7,294.2 					
						"/>
					<polygon class="st5" points="277.2,292.6 287.6,289.5 246.4,237.4 237.9,239.9 231.3,306 241.8,303 242.6,292.8 271,284.5 
											"/>
					<polygon class="st5" points="246,251.7 265.7,277.4 243.3,283.9 					"/>
					<polygon class="st5" points="244.8,282.1 263.4,276.6 247.1,255.3 					"/>
					<polygon class="st5" points="304.6,222.3 317.7,220.4 325.6,272.9 351.1,269.1 352.8,280.1 314.2,286 					"/>
					<polygon class="st5" points="315.3,284.4 351.2,279 350,270.6 324.4,274.5 316.5,221.9 306.2,223.5 					"/>
					<polygon class="st5" points="377.9,213.8 391.2,213.4 392.7,266.5 418.6,265.7 418.9,276.9 379.9,278.1 					"/>
					<polygon class="st5" points="381.2,276.6 417.5,275.6 417.2,267.1 391.4,267.9 389.8,214.8 379.4,215.1 					"/>
					<polygon class="st5" points="451.6,213.8 491,217.2 490,228.4 463.8,226.1 462.3,243.3 484.3,245.2 483.4,256.4 461.4,254.5 
						460.2,267.9 487.2,270.2 486.3,281.4 446.1,277.9 					"/>
					<polygon class="st5" points="447.6,276.6 485,279.9 485.7,271.5 458.7,269.1 460.1,253 482.1,254.9 482.8,246.5 460.9,244.6 
						462.6,224.6 488.8,226.9 489.5,218.5 452.9,215.3 					"/>
					<path class="st5" d="M547.4,271.8l15.9,23.8l-16.5-3.4l-14.5-23l-3.9,19.1l-13-2.7l13-63l21.7,4.5
						c15.5,3.2,22.8,14.8,20.3,27.2C568.1,265.3,559.2,271.6,547.4,271.8z"/>
					<path class="st5" d="M549.8,228.4l-20.3-4.2L517,284.6l10.3,2.1l4.3-21.1l16,25.3l12.6,2.6l-15.5-23.2
						c13.1,1,22.2-6.4,24.3-16.3C571.4,242.4,564.5,231.5,549.8,228.4z"/>
					<path class="st5" d="M538.1,234.5l9.8,2c7.9,1.6,12.4,7.2,10.7,15.6c-1.8,8.5-8,11.8-17.8,9.7l-8-1.6L538.1,234.5z"/>
					<path class="st5" d="M534.4,259.1l6.7,1.4c8.9,1.8,14.6-1,16.1-8.7c1.5-7.6-2.5-12.5-9.6-14l-8.5-1.7L534.4,259.1z"/>
					<polygon class="st5" points="622.1,245.8 603.3,307.3 590.6,303.5 609.4,241.9 					"/>
					<polygon class="st5" points="610.3,243.7 592.3,302.5 602.4,305.6 620.3,246.7 					"/>
					<polygon class="st5" points="673.3,323.3 647.7,312.7 640.6,320.1 627.9,314.9 676.5,265.3 686.4,269.4 685.8,338.8 
						673.1,333.5 					"/>
					<polygon class="st5" points="674.5,332.6 684.5,336.7 685,270.3 676.8,266.9 630.3,314.4 640.3,318.5 647.4,311.1 674.7,322.4 
											"/>
					<polygon class="st5" points="675.7,281.2 675,313.5 653.4,304.6 					"/>
					<polygon class="st5" points="655.8,304.1 673.6,311.5 674.3,284.7 					"/>
				</g>
			</g>
		</g>
		<circle class="st4" cx="62.2" cy="361.8" r="5.2"/>
		<circle class="st4" cx="775.4" cy="353" r="5.2"/>
		<path class="st6" d="M156.6,428.3c0-53.9,150.3-97.5,336.1-97.5"/>
		<g>
			<g>
				<path class="st7" d="M209.2,406.2c-0.2,1.7-1.3,3.8-3.5,4.7c-3.1,1.2-6.6-0.3-8.1-3.9c-1.5-3.6-0.1-7.2,3-8.4
					c2.3-0.9,4.5-0.1,5.8,1l-0.5,0.2c-0.7-0.5-2.8-1.7-5.2-0.7c-2.8,1.2-4.1,4.5-2.7,7.8c1.4,3.3,4.6,4.8,7.5,3.7
					c2.5-1,3.1-3.5,3.2-4.1L209.2,406.2z"/>
				<path class="st7" d="M213.4,407.6l-4.6-12.1l0.4-0.2l2.2,5.8l6-2.3l-2.2-5.8l0.4-0.2l4.6,12.1l-0.4,0.2l-2.2-5.9l-6,2.3l2.2,5.9
					L213.4,407.6z"/>
				<path class="st7" d="M219.6,391.5l5.9-2.1l0.2,0.4l-5.5,2l1.9,5.4l5.5-2l0.2,0.4l-5.5,2l2,5.5l5.5-2l0.2,0.4l-5.9,2.1
					L219.6,391.5z"/>
				<path class="st7" d="M229.2,388l6-2l0.2,0.4l-5.5,1.9l1.8,5.4l5.5-1.9l0.2,0.4l-5.5,1.9l1.9,5.5l5.5-1.9l0.2,0.4l-6,2L229.2,388
					z"/>
				<path class="st7" d="M241.8,394c1,2.3,2.8,2.3,3.6,2c1.4-0.4,2.4-2,1.8-3.8c-0.7-2.3-2.6-2.2-3.8-2.1c-1,0-3.1,0.1-3.9-2.2
					c-0.7-2,0.4-3.7,2-4.2c1.3-0.4,2.9,0,3.7,2l-0.4,0.1c-0.5-0.9-1.4-2.2-3.2-1.6c-1.4,0.4-2.2,1.9-1.7,3.5c0.6,2,2.2,2,3.9,1.9
					c0.6,0,2.9-0.3,3.8,2.4c0.6,2-0.5,3.9-2.1,4.5c-1.3,0.4-3.3,0-4.2-2.3L241.8,394z"/>
				<path class="st7" d="M248.3,381.9l6.1-1.8l0.1,0.5l-5.6,1.7l1.6,5.5l5.6-1.7l0.1,0.5l-5.6,1.7l1.7,5.5l5.6-1.7l0.1,0.5l-6,1.6
					L248.3,381.9z"/>
				<path class="st7" d="M266.8,381.7c0.7-0.2,1.5,0.3,1.7,1.1s-0.2,1.6-0.9,1.8c-0.8,0.2-1.5-0.3-1.7-1.1
					C265.6,382.7,266,381.9,266.8,381.7L266.8,381.7z"/>
				<path class="st7" d="M276.9,374l6.1-1.5l0.1,0.5l-5.7,1.4l1.3,5.5l5.7-1.4l0.1,0.5l-5.7,1.4l1.4,5.6l5.7-1.4l0.1,0.5l-6.1,1.5
					L276.9,374z"/>
				<path class="st7" d="M302,381.7c-0.4,0-0.8,0-1.1,0c-1.1,0-1.6-0.3-2.5-0.6c-0.5,0.6-1.5,1.6-3.2,2c-3.6,0.8-6.6-1.8-7.3-5.3
					c-0.8-3.8,1.2-7.1,4.4-7.8c3.2-0.7,6.4,1.5,7.3,5.3c0.6,2.8-0.4,4.5-0.9,5.4c1,0.4,1.7,0.5,3.1,0.4L302,381.7z M292.5,370.6
					c-3,0.6-4.8,3.7-4.1,7.2c0.2,1.1,0.6,1.7,0.8,2c0.6-0.4,1.3-0.8,2.5-1.1s2.5-0.2,3.5,0.2c0.5,0.2,0.8,0.3,3.1,1.5
					c1-1.5,1.2-3.2,0.8-5C298.5,372,295.5,370,292.5,370.6L292.5,370.6z M295.2,382.7c1.4-0.3,2.4-1.2,2.8-1.8
					c-0.3-0.2-2.2-1.2-2.2-1.2c-1.4-0.6-2.7-0.8-4.1-0.5c-1.1,0.2-1.7,0.7-2.3,1.1C291.5,383.2,294.1,383,295.2,382.7L295.2,382.7z"
					/>
				<path class="st7" d="M302.6,368.3l1.6,8.2c0.2,1.2,0.4,2,1.3,2.9c0.6,0.6,1.6,0.9,2.5,0.7s1.7-0.8,2.1-1.6
					c0.5-1.2,0.4-2,0.1-3.2l-1.6-8.2l0.5-0.1l1.6,8.2c0.2,1.1,0.5,2.9-0.6,4.2c-0.5,0.6-1.2,1-2,1.2c-0.8,0.1-1.6,0-2.2-0.4
					c-1.5-0.8-1.9-2.5-2.1-3.6l-1.6-8.2L302.6,368.3z"/>
				<path class="st7" d="M313.1,366.3l0.5-0.1l2.3,12.7l-0.5,0.1L313.1,366.3z"/>
				<path class="st7" d="M320,365.1c1.4-0.2,2.1-0.2,3,0.3c0.8,0.4,1.4,1.5,1.6,2.7s-0.1,2.4-0.7,3c-0.6,0.7-1.4,1-2.7,1.2l-2.2,0.4
					l0.9,5.5l-0.5,0.1l-2.1-12.7L320,365.1z M318.9,372.2l2.2-0.4c1.3-0.2,1.9-0.5,2.5-1.1c0.5-0.5,0.7-1.6,0.5-2.6s-0.7-2-1.3-2.3
					c-0.7-0.4-1.4-0.5-2.7-0.3l-2.2,0.4L318.9,372.2z"/>
				<path class="st7" d="M329,376.7l-1.8-12.8l0.7-0.1l7,11.2l3.6-12.7l0.7-0.1L341,375l-0.5,0.1l-1.7-12.3l-3.7,13h-0.3l-7.1-11.5
					l1.7,12.3L329,376.7z"/>
				<path class="st7" d="M343.3,361.7l6.3-0.7l0.1,0.5l-5.8,0.7l0.7,5.7l5.8-0.7l0.1,0.5l-5.8,0.7l0.7,5.8l5.8-0.7l0.1,0.5l-6.3,0.7
					L343.3,361.7z"/>
				<path class="st7" d="M363.3,371.9l-1.2-12.2h0.5l1.3,12.8l-0.6,0.1l-9.2-11.5l1.2,12.3h-0.5l-1.3-12.8l0.7-0.1L363.3,371.9z"/>
				<path class="st7" d="M368.7,359.6l-3.1,0.2v-0.5l6.7-0.5v0.5l-3.1,0.2l1,12.4h-0.5L368.7,359.6z"/>
				<path class="st7" d="M383.2,363.1c0.7,0,1.4,0.6,1.4,1.4s-0.5,1.5-1.3,1.6c-0.8,0-1.4-0.6-1.4-1.4
					C381.9,363.9,382.4,363.2,383.2,363.1L383.2,363.1z"/>
				<path class="st7" d="M455.6,363.4c0.7,0,1.3,0.7,1.2,1.6c0,0.8-0.7,1.4-1.4,1.4c-0.8,0-1.3-0.7-1.3-1.6
					C454.2,363.9,454.8,363.3,455.6,363.4L455.6,363.4z"/>
				<path class="st7" d="M466.7,359.1h0.5l2,12.4l4-11.9h0.3l1.9,12.4l4.1-11.9h0.5l-4.4,12.6l-0.6-0.1l-1.8-11.7l-3.8,11.2
					l-0.6-0.1L466.7,359.1z"/>
				<path class="st7" d="M483.2,360.7h0.5l-1.3,12.8h-0.5L483.2,360.7z"/>
				<path class="st7" d="M494.9,374.3l1.4-12.1l0.5,0.1l-1.5,12.8l-0.6-0.1l-6.5-13.2l-1.4,12.3l-0.5-0.1l1.5-12.8l0.7,0.1
					L494.9,374.3z"/>
				<path class="st7" d="M500.8,362.7l6.3,0.8L507,364l-5.8-0.8l-0.8,5.7l5.8,0.8l-0.1,0.5l-5.8-0.8l-0.8,5.7l5.8,0.8l-0.1,0.5
					l-6.3-0.8L500.8,362.7z"/>
				<path class="st7" d="M517.8,370.1c0.7,0.1,1.2,0.9,1.1,1.7c-0.1,0.8-0.8,1.4-1.6,1.3c-0.8-0.1-1.3-0.9-1.1-1.7
					C516.3,370.5,517,370,517.8,370.1L517.8,370.1z"/>
				<path class="st7" d="M538.6,378.9c-1,1.3-3.1,2.5-5.5,2.1c-3.2-0.6-5.4-3.8-4.7-7.6s3.8-6.1,7.1-5.5c2.4,0.5,3.8,2.4,4.4,4
					l-0.5-0.1c-0.3-0.7-1.5-2.9-4-3.4c-3-0.5-5.9,1.6-6.5,5.1s1.3,6.5,4.3,7.1c2.6,0.5,4.5-1.3,4.9-1.7L538.6,378.9L538.6,378.9z"/>
				<path class="st7" d="M541.3,382.3l2.5-12.7l0.5,0.1l-1.2,6.1l6.3,1.3l1.2-6.1l0.5,0.1l-2.5,12.7l-0.5-0.1l1.2-6.1l-6.3-1.4
					l-1.2,6.1L541.3,382.3L541.3,382.3z"/>
				<path class="st7" d="M551.8,384.4l-0.5-0.1l7.5-11.6l0.6,0.1l2.1,13.7l-0.5-0.1l-0.7-4.8l-5.9-1.3L551.8,384.4z M559.1,373.3
					l-4.3,6.7l5.5,1.2L559.1,373.3z"/>
				<path class="st7" d="M567.1,374.5l2.6,0.6c1.7,0.4,2.4,0.7,2.9,1.2c0.8,0.7,1.2,2.3,0.8,3.7c-0.2,0.8-0.6,1.7-1.3,2.4
					c-1.1,1-2.1,1-3.4,0.7l1.9,5.4l-0.6-0.1l-2.1-6l0.3,0.1c0.8,0.2,2.2,0.5,3-0.1c0.9-0.7,1.3-1.5,1.6-2.5c0.3-1.1,0.1-2.4-0.7-3.2
					c-0.6-0.7-1.4-0.9-2.7-1.2l-2.1-0.5l-2.8,12.1L564,387L567.1,374.5z"/>
				<path class="st7" d="M585,389.3c-1.1,1.2-3.3,2.3-5.6,1.7c-3.2-0.8-5.1-4.2-4.2-7.9c0.9-3.7,4.2-5.8,7.4-5
					c2.4,0.6,3.7,2.6,4.1,4.2l-0.5-0.1c-0.3-0.8-1.2-3-3.7-3.6c-3-0.7-6,1.2-6.9,4.7s0.9,6.6,3.8,7.4c2.6,0.7,4.5-1,5-1.4L585,389.3
					z"/>
				<path class="st7" d="M591.3,380.5l-2.2,8.1c-0.3,1.2-0.5,2-0.1,3.2c0.3,0.8,1.1,1.5,2,1.8c0.8,0.2,1.9,0,2.5-0.5
					c1-0.8,1.2-1.6,1.5-2.8l2.2-8.1l0.5,0.1l-2.2,8.1c-0.3,1.1-0.8,2.8-2.4,3.5c-0.7,0.3-1.5,0.4-2.3,0.2s-1.4-0.7-1.9-1.3
					c-1-1.4-0.6-3.1-0.3-4.2l2.2-8.1H591.3L591.3,380.5z"/>
				<path class="st7" d="M603.4,384.3l-3-0.9l0.1-0.5l6.5,1.8l-0.1,0.5l-3-0.9l-3.4,12l-0.5-0.1L603.4,384.3z"/>
				<path class="st7" d="M609.8,385.7l6.1,1.8l-0.1,0.5l-5.6-1.7l-1.6,5.5l5.6,1.7l-0.1,0.5l-5.6-1.7l-1.7,5.6l5.6,1.7l-0.1,0.5
					l-6.1-1.8L609.8,385.7z"/>
				<path class="st7" d="M619.4,388.6l2.5,0.8c1.7,0.5,2.3,0.9,2.8,1.4c0.7,0.8,1,2.3,0.6,3.8c-0.2,0.8-0.7,1.7-1.5,2.3
					c-1.2,0.9-2.1,0.8-3.4,0.4l1.5,5.6l-0.6-0.2l-1.6-6.1l0.3,0.1c0.8,0.3,2.1,0.7,3.1,0.1c1-0.6,1.5-1.4,1.8-2.3
					c0.3-1.1,0.2-2.4-0.4-3.3c-0.5-0.7-1.3-1-2.6-1.4l-2.1-0.6l-3.7,11.9l-0.4-0.1L619.4,388.6z"/>
				<path class="st7" d="M629.4,391.7l0.4,0.1l-4,12.3l-0.4-0.1L629.4,391.7z"/>
				<path class="st7" d="M633.7,393.1l6,2l-0.2,0.4l-5.5-1.9l-1.8,5.4l5.5,1.9l-0.2,0.4l-5.5-1.9l-1.9,5.5l5.5,1.9l-0.2,0.4l-6-2
					L633.7,393.1z"/>
			</g>
		</g>
		<rect x="392.6" y="343.3" class="st6" width="55.4" height="54.4"/>
		<g class="st8">
			<path class="st3" d="M437.1,371.7c-1-0.1-1.8-0.3-2.5-0.4c-2.5-0.6-3.8-1.3-5.6-2.4c-1.4,1-4.4,2.8-8.6,2.8
				c-8.9,0-14.6-6.8-14.6-14.5c0-8.4,6.5-14.5,14.5-14.5s14.5,6.1,14.5,14.5c0,6.1-3.3,9.5-4.8,11c2.1,1.2,3.8,1.9,7.2,2.3v1.2
				H437.1z M420.2,343.7c-7.4,0-13.4,5.7-13.4,13.5c0,2.3,0.5,3.8,0.8,4.7c1.5-0.5,3.5-1.1,6.5-1.1c3.1,0,5.9,0.8,8.3,2
				c1.2,0.6,1.7,1,6.5,4.7c3.1-2.6,4.6-6.3,4.6-10.3C433.7,349.5,427.7,343.7,420.2,343.7L420.2,343.7z M420.5,370.7
				c3.4,0,6.2-1.4,7.7-2.5c-0.7-0.5-4.6-3.4-4.6-3.5c-3-2-6-2.9-9.5-2.9c-2.7,0-4.4,0.6-5.9,1.2
				C411.5,369.9,417.7,370.7,420.5,370.7L420.5,370.7z"/>
		</g>
	</g>
</g>
</svg>
